<?xml version="1.0" encoding="utf-8"?>
<!-- Generator: Adobe Illustrator 27.5.0, SVG Export Plug-In . SVG Version: 6.00 Build 0)  -->
<svg version="1.1" xmlns="http://www.w3.org/2000/svg" xmlns:xlink="http://www.w3.org/1999/xlink" x="0px" y="0px"
	 viewBox="0 0 500 500" style="enable-background:new 0 0 500 500;" xml:space="preserve">
<g id="Background_Complete">
	<g>
		<g>
			<path style="fill:#F5F5F5;" d="M112.747,133.989h-80.55c-2.185,0-3.956-1.771-3.956-3.956V45.991
				c0-2.185,1.771-3.956,3.956-3.956h80.55c2.185,0,3.956,1.771,3.956,3.956v84.042
				C116.703,132.218,114.932,133.989,112.747,133.989z"/>
		</g>
		<g>
			<g>
				<g>
					<g>
						<g>
							<g>
								<g>
									<g>
										<g>
											<path style="fill:#E0E0E0;" d="M73.279,62.781c-13.509,0-24.46,10.951-24.46,24.46c0,13.509,10.951,24.46,24.46,24.46
												c13.509,0,24.46-10.951,24.46-24.46C97.739,73.732,86.788,62.781,73.279,62.781z M73.648,101.898
												c-8.298,0-15.026-6.727-15.026-15.026c0-8.299,6.727-15.026,15.026-15.026c8.299,0,15.026,6.727,15.026,15.026
												C88.674,95.171,81.947,101.898,73.648,101.898z"/>
										</g>
									</g>
								</g>
							</g>
						</g>
						<g>
							<g>
								<g>
									<g>
										<g>
											<g>
												<path style="fill:#FAFAFA;" d="M73.654,62.791c0,2.602-0.001,6.112-0.002,9.056c8.297,0.002,15.022,6.728,15.022,15.026
													c0,1.589-0.248,3.119-0.705,4.556l8.865,2.404c0.586-2.098,0.906-4.307,0.906-6.591
													C97.739,73.858,86.99,62.992,73.654,62.791z"/>
											</g>
										</g>
									</g>
								</g>
							</g>
							<g>
								<g>
									<g>
										<g>
											<g>
												<path style="fill:#EBEBEB;" d="M58.623,86.873c0-6.118,3.659-11.379,8.907-13.723l-3.762-8.45
													c-8.784,3.711-14.948,12.406-14.948,22.541c0,0.344,0.012,0.686,0.026,1.026h9.844
													C58.647,87.808,58.623,87.343,58.623,86.873z"/>
											</g>
										</g>
									</g>
								</g>
							</g>
							<g>
								<g>
									<g>
										<g>
											<g>
												<path style="fill:#EBEBEB;" d="M73.648,101.898c-1.091,0-2.154-0.119-3.179-0.34c-0.378,2.18-1.092,6.404-1.652,9.73
													c1.447,0.267,2.938,0.414,4.462,0.414c11.224,0,20.676-7.563,23.554-17.869l-8.865-2.404
													C86.039,97.499,80.358,101.898,73.648,101.898z"/>
											</g>
										</g>
									</g>
								</g>
							</g>
						</g>
					</g>
					<g>
						<g>
							<g>
								<g>
									<g>
										<path style="fill:#E0E0E0;" d="M70.403,88.089h-0.905v1.168h-1.255v-1.168h-2.994v-0.865l2.62-3.526h1.35l-2.43,3.343
											h1.493v-1.04h1.215v1.04h0.905V88.089z"/>
									</g>
								</g>
							</g>
						</g>
						<g>
							<g>
								<g>
									<g>
										<path style="fill:#E0E0E0;" d="M70.782,86.477c0-1.834,1.017-2.874,2.382-2.874c1.374,0,2.382,1.04,2.382,2.874
											c0,1.835-1.009,2.875-2.382,2.875C71.799,89.352,70.782,88.311,70.782,86.477z M74.252,86.477
											c0-1.262-0.445-1.787-1.088-1.787c-0.635,0-1.08,0.524-1.08,1.787c0,1.263,0.445,1.787,1.08,1.787
											C73.808,88.264,74.252,87.74,74.252,86.477z"/>
									</g>
								</g>
							</g>
						</g>
						<g>
							<g>
								<g>
									<g>
										<path style="fill:#E0E0E0;" d="M76.078,85.166c0-0.937,0.572-1.532,1.382-1.532c0.81,0,1.374,0.588,1.374,1.532
											c0,0.945-0.563,1.533-1.374,1.533C76.65,86.7,76.078,86.104,76.078,85.166z M78.039,85.166
											c0-0.596-0.231-0.881-0.58-0.881c-0.342,0-0.58,0.294-0.58,0.881c0,0.588,0.238,0.882,0.58,0.882
											C77.809,86.048,78.039,85.762,78.039,85.166z M80.771,83.698h0.945l-3.796,5.559h-0.945L80.771,83.698z M79.858,87.787
											c0-0.937,0.572-1.532,1.374-1.532c0.81,0,1.382,0.595,1.382,1.532c0,0.937-0.572,1.533-1.382,1.533
											C80.43,89.32,79.858,88.724,79.858,87.787z M81.811,87.787c0-0.588-0.23-0.882-0.58-0.882c-0.341,0-0.58,0.286-0.58,0.882
											c0,0.595,0.238,0.882,0.58,0.882C81.581,88.669,81.811,88.375,81.811,87.787z"/>
									</g>
								</g>
							</g>
						</g>
					</g>
				</g>
				<g>
					<g>
						<g>
							<g>
								<g>
									<g>
										<g>
											<path style="fill:#E0E0E0;" d="M93.519,117.873c0,0.128-9.062,0.232-20.239,0.232c-11.18,0-20.241-0.104-20.241-0.232
												c0-0.128,9.061-0.232,20.241-0.232C84.457,117.641,93.519,117.745,93.519,117.873z"/>
										</g>
									</g>
								</g>
							</g>
						</g>
					</g>
					<g>
						<g>
							<g>
								<g>
									<g>
										<g>
											<path style="fill:#E0E0E0;" d="M84.505,121.59c0,0.128-5.026,0.232-11.225,0.232c-6.201,0-11.226-0.104-11.226-0.232
												c0-0.128,5.025-0.232,11.226-0.232C79.479,121.358,84.505,121.462,84.505,121.59z"/>
										</g>
									</g>
								</g>
							</g>
						</g>
					</g>
				</g>
			</g>
		</g>
		<g>
			<g>
				<circle style="fill:#E0E0E0;" cx="37.059" cy="49.859" r="2.226"/>
			</g>
			<g>
				<circle style="fill:#E0E0E0;" cx="42.806" cy="49.859" r="2.226"/>
			</g>
			<g>
				<path style="fill:#E0E0E0;" d="M50.779,49.859c0,1.229-0.997,2.226-2.226,2.226c-1.229,0-2.226-0.997-2.226-2.226
					c0-1.229,0.997-2.226,2.226-2.226C49.782,47.633,50.779,48.629,50.779,49.859z"/>
			</g>
		</g>
	</g>
	<g>
		<g>
			<g>
				<g>
					<g>
						<path style="fill:#EBEBEB;" d="M430.333,74.569c-0.09-0.002-0.205-1.04-0.34-2.999c-0.043-0.981-0.133-2.19-0.402-3.602
							c-0.22-1.416-0.421-3.054-0.946-4.839c-0.793-3.62-2.433-7.903-5.026-12.45c-2.615-4.529-6.399-9.274-11.577-13.335
							c-5.163-4.024-11.691-7.486-19.267-8.984c-7.526-1.449-16.048-1.394-24.216,1.51c-4.109,1.326-8.089,3.379-11.762,6
							c-1.897,1.239-3.563,2.808-5.309,4.311c-1.582,1.676-3.244,3.31-4.618,5.22c-5.824,7.38-9.232,16.956-9.568,26.903
							c-0.151,9.955,2.789,19.688,8.247,27.345c1.281,1.975,2.862,3.688,4.36,5.439c1.671,1.586,3.259,3.235,5.094,4.564
							c3.542,2.797,7.418,5.041,11.458,6.565c8.019,3.298,16.53,3.766,24.117,2.684c7.64-1.129,14.328-4.271,19.68-8.04
							c5.369-3.806,9.379-8.361,12.21-12.758c2.81-4.416,4.656-8.614,5.623-12.191c0.611-1.758,0.891-3.384,1.18-4.787
							c0.337-1.396,0.485-2.599,0.576-3.577C430.078,75.598,430.243,74.567,430.333,74.569c0.089,0.002,0.099,1.038,0.035,3.024
							c-0.008,0.996-0.075,2.225-0.336,3.658c-0.212,1.44-0.42,3.113-0.968,4.931c-0.839,3.696-2.588,8.064-5.368,12.693
							c-2.802,4.608-6.851,9.417-12.361,13.471c-5.492,4.015-12.429,7.398-20.413,8.677c-7.927,1.231-16.86,0.822-25.33-2.581
							c-4.264-1.576-8.362-3.911-12.111-6.837c-1.938-1.394-3.626-3.117-5.391-4.787c-1.593-1.835-3.263-3.641-4.624-5.717
							c-5.786-8.057-8.925-18.352-8.757-28.863c0.345-10.503,3.981-20.629,10.151-28.394c1.461-2.007,3.216-3.729,4.896-5.484
							c1.844-1.582,3.614-3.22,5.617-4.518c3.886-2.74,8.093-4.873,12.427-6.24c8.624-2.987,17.565-2.963,25.422-1.349
							c7.912,1.664,14.677,5.38,19.967,9.657c5.307,4.316,9.119,9.315,11.694,14.055c2.553,4.759,4.088,9.208,4.747,12.94
							c0.458,1.842,0.586,3.524,0.727,4.972c0.191,1.444,0.199,2.675,0.158,3.67C430.483,73.536,430.422,74.571,430.333,74.569z"/>
					</g>
				</g>
			</g>
		</g>
		<g>
			<g>
				<g>
					<g>
						<path style="fill:#EBEBEB;" d="M420.896,45.096c0.104,0.146-0.747,0.885-2.39,2.107c-0.901,0.647-1.908,1.37-3.036,2.179
							c-0.602,0.411-1.231,0.878-1.932,1.317c-0.742,0.388-1.517,0.793-2.323,1.214c-6.312,3.648-16.314,7.372-27.734,6.984
							c-1.417-0.063-2.817-0.125-4.198-0.187c-1.363-0.213-2.707-0.424-4.029-0.63c-0.659-0.111-1.316-0.199-1.958-0.329
							c-0.633-0.168-1.26-0.335-1.881-0.501c-1.237-0.343-2.461-0.634-3.627-1.008c-4.629-1.61-8.627-3.486-11.767-5.422
							c-6.322-3.822-9.399-7.3-9.16-7.523c0.255-0.292,3.691,2.619,10.059,5.925c3.164,1.68,7.102,3.314,11.583,4.74
							c1.128,0.328,2.309,0.576,3.499,0.882c0.597,0.148,1.2,0.297,1.808,0.448c0.62,0.094,1.245,0.188,1.876,0.283
							c1.263,0.186,2.547,0.375,3.85,0.567c1.316,0.053,2.651,0.107,4.002,0.161c10.858,0.374,20.476-2.88,26.855-6.03
							c0.815-0.354,1.599-0.694,2.35-1.02c0.716-0.374,1.366-0.775,1.991-1.121c1.195-0.659,2.264-1.248,3.22-1.774
							C419.744,45.41,420.792,44.95,420.896,45.096z"/>
					</g>
				</g>
			</g>
		</g>
		<g>
			<g>
				<g>
					<g>
						<path style="fill:#EBEBEB;" d="M345.425,102.452c-0.104-0.146,0.747-0.885,2.389-2.107c0.901-0.646,1.909-1.37,3.036-2.179
							c0.602-0.412,1.231-0.878,1.932-1.317c0.742-0.388,1.517-0.793,2.323-1.214c6.312-3.648,16.313-7.372,27.734-6.984
							c1.417,0.063,2.817,0.125,4.198,0.187c1.363,0.213,2.707,0.423,4.029,0.63c0.659,0.111,1.316,0.199,1.958,0.328
							c0.633,0.169,1.26,0.336,1.881,0.501c1.237,0.344,2.461,0.634,3.627,1.008c4.629,1.61,8.627,3.487,11.767,5.421
							c6.322,3.822,9.399,7.3,9.16,7.523c-0.255,0.292-3.691-2.618-10.059-5.925c-3.164-1.679-7.102-3.314-11.583-4.74
							c-1.128-0.327-2.309-0.576-3.499-0.882c-0.597-0.148-1.199-0.298-1.808-0.449c-0.62-0.094-1.245-0.188-1.876-0.284
							c-1.263-0.186-2.547-0.375-3.85-0.566c-1.316-0.053-2.651-0.107-4.001-0.162c-10.858-0.374-20.476,2.88-26.855,6.031
							c-0.815,0.354-1.599,0.694-2.35,1.02c-0.716,0.374-1.366,0.776-1.991,1.121c-1.195,0.659-2.264,1.248-3.22,1.774
							C346.577,102.138,345.529,102.598,345.425,102.452z"/>
					</g>
				</g>
			</g>
		</g>
		<g>
			<g>
				<g>
					<g>
						<path style="fill:#EBEBEB;" d="M430.306,75.664c-0.017,0.716-21.149,0.784-47.193,0.151
							c-26.053-0.633-47.152-1.726-47.134-2.442c0.017-0.716,21.145-0.784,47.197-0.151
							C409.22,73.855,430.324,74.949,430.306,75.664z"/>
					</g>
				</g>
			</g>
		</g>
		<g>
			<g>
				<g>
					<g>
						<path style="fill:#EBEBEB;" d="M380.968,120.543c-0.716-0.017-0.784-21.142-0.152-47.177
							c0.633-26.044,1.725-47.136,2.442-47.119c0.716,0.017,0.784,21.138,0.151,47.182
							C382.777,99.464,381.684,120.561,380.968,120.543z"/>
					</g>
				</g>
			</g>
		</g>
		<g>
			<g>
				<g>
					<g>
						<path style="fill:#EBEBEB;" d="M380.969,120.473c-0.178,0.274-5.375-3.249-11.373-11.227
							c-2.965-3.984-6.078-9.111-8.431-15.308c-2.342-6.185-3.809-13.467-3.65-21.136c0.136-7.694,2.07-14.893,4.762-20.923
							c2.692-6.054,6.072-10.997,9.213-14.837c6.353-7.676,11.592-11.079,11.768-10.806c0.255,0.295-4.491,4.156-10.323,11.936
							c-2.884,3.89-5.997,8.787-8.465,14.656c-2.469,5.851-4.231,12.712-4.362,20.024c-0.151,7.317,1.172,14.278,3.302,20.266
							c2.14,5.999,4.982,11.054,7.683,15.068C376.553,116.225,381.232,120.187,380.969,120.473z"/>
					</g>
				</g>
			</g>
		</g>
		<g>
			<g>
				<g>
					<g>
						<path style="fill:#EBEBEB;" d="M384.315,26.26c0.178-0.274,5.375,3.249,11.373,11.227c2.966,3.984,6.078,9.111,8.431,15.308
							c2.342,6.185,3.809,13.467,3.65,21.136c-0.136,7.694-2.07,14.894-4.762,20.923c-2.692,6.054-6.072,10.997-9.213,14.837
							c-6.352,7.677-11.592,11.08-11.768,10.806c-0.254-0.295,4.491-4.156,10.323-11.936c2.884-3.89,5.996-8.786,8.465-14.656
							c2.469-5.851,4.232-12.712,4.362-20.024c0.151-7.317-1.172-14.278-3.302-20.266c-2.14-5.999-4.983-11.054-7.682-15.068
							C388.731,30.507,384.052,26.545,384.315,26.26z"/>
					</g>
				</g>
			</g>
		</g>
	</g>
	<g>
		<g>
			<g>
				<path style="fill:#EBEBEB;" d="M321.891,415.736v-27.046c14.837,0,27.046,12.209,27.046,27.046
					c0,14.837-12.209,27.046-27.046,27.046c-14.601,0-26.702-11.824-27.039-26.421L321.891,415.736z"/>
			</g>
		</g>
		<g>
			<g>
				<path style="fill:#F5F5F5;" d="M315.297,408.446l-27.046,0.611c0-7.043,2.751-14.426,7.663-19.473
					c4.912-5.048,11.923-7.982,18.964-8.174L315.297,408.446z"/>
			</g>
		</g>
	</g>
</g>
<g id="Background_Simple" style="display:none;">
	<g style="display:inline;">
		<path style="fill:#F5F5F5;" d="M454.447,118.712l-2.434-4.01c-20.516-33.808-57.609-54.188-96.717-51.715
			c-5.027,0.318-10.033,0.999-14.971,2.056c-35.557,7.611-66.496,34.5-79.321,68.937c-7.542,20.253-9.649,43.571-23.962,59.647
			c-18.627,20.922-50.251,21.579-78.055,20.712s-59.449-0.128-77.985,20.877c-11.609,13.155-15.299,31.861-14.363,49.478
			c2.478,46.641,34.979,88.345,76.311,109.074c41.332,20.729,89.996,22.586,135.232,13.467
			c63.37-12.774,123.634-47.855,159.857-102.038C474.262,251.012,483.43,177.193,454.447,118.712z"/>
	</g>
</g>
<g id="Floor">
	<g>
		<g>
			<path style="fill:#263238;" d="M468.887,475.971c0,0.144-98.007,0.26-218.876,0.26c-120.911,0-218.897-0.117-218.897-0.26
				s97.986-0.26,218.897-0.26C370.88,475.711,468.887,475.828,468.887,475.971z"/>
		</g>
	</g>
</g>
<g id="Screens">
	<g>
		<g>
			<g>
				<g>
					<path style="fill:#FFFFFF;" d="M346.942,250.553H144.659c-6.948,0-12.581-5.633-12.581-12.581V65.296
						c0-4.336,3.515-7.85,7.85-7.85h210.835c4.838,0,8.76,3.922,8.76,8.76v171.766C359.523,244.92,353.891,250.553,346.942,250.553z
						"/>
				</g>
				<g>
					<path style="fill:#E0E0E0;" d="M359.204,80.697H132.078V63.637c0-3.419,2.772-6.191,6.191-6.191h213.835
						c3.921,0,7.1,3.179,7.1,7.1V80.697z"/>
				</g>
				<g>
					<g>
						<path style="fill:#263238;" d="M359.204,80.697c0,0.144-50.776,0.26-113.398,0.26c-62.643,0-113.408-0.117-113.408-0.26
							c0-0.144,50.766-0.26,113.408-0.26C308.428,80.437,359.204,80.553,359.204,80.697z"/>
					</g>
				</g>
				<g>
					<g>
						<path style="fill:#263238;" d="M144.486,69.575c0,1.183-0.959,2.143-2.143,2.143s-2.143-0.959-2.143-2.143
							c0-1.183,0.959-2.143,2.143-2.143S144.486,68.392,144.486,69.575z"/>
					</g>
					<g>
						<path style="fill:#263238;" d="M151.328,69.575c0,1.183-0.959,2.143-2.143,2.143c-1.183,0-2.143-0.959-2.143-2.143
							c0-1.183,0.959-2.143,2.143-2.143C150.368,67.433,151.328,68.392,151.328,69.575z"/>
					</g>
					<g>
						<path style="fill:#263238;" d="M158.306,69.575c0,1.183-0.959,2.143-2.143,2.143c-1.183,0-2.143-0.959-2.143-2.143
							c0-1.183,0.959-2.143,2.143-2.143C157.346,67.433,158.306,68.392,158.306,69.575z"/>
					</g>
				</g>
				<g>
					<g>
						<path style="fill:#263238;" d="M283.5,98.031c0,0.144-16.402,0.26-36.63,0.26c-20.235,0-36.633-0.117-36.633-0.26
							s16.398-0.26,36.633-0.26C267.099,97.771,283.5,97.887,283.5,98.031z"/>
					</g>
				</g>
				<g>
					<g>
						<g>
							<path style="fill:#263238;" d="M249.546,113.484c0,0.144-19.625,0.26-43.828,0.26c-24.212,0-43.833-0.117-43.833-0.26
								c0-0.144,19.621-0.26,43.833-0.26C229.921,113.224,249.546,113.34,249.546,113.484z"/>
						</g>
					</g>
					<g>
						<g>
							<path style="fill:#263238;" d="M249.546,121.774c0,0.144-19.625,0.26-43.828,0.26c-24.212,0-43.833-0.117-43.833-0.26
								c0-0.144,19.621-0.26,43.833-0.26C229.921,121.514,249.546,121.631,249.546,121.774z"/>
						</g>
					</g>
					<g>
						<g>
							<path style="fill:#263238;" d="M249.546,130.065c0,0.144-19.625,0.26-43.828,0.26c-24.212,0-43.833-0.117-43.833-0.26
								c0-0.144,19.621-0.26,43.833-0.26C229.921,129.804,249.546,129.921,249.546,130.065z"/>
						</g>
					</g>
					<g>
						<g>
							<path style="fill:#263238;" d="M249.546,138.355c0,0.144-19.625,0.26-43.828,0.26c-24.212,0-43.833-0.117-43.833-0.26
								s19.621-0.26,43.833-0.26C229.921,138.095,249.546,138.211,249.546,138.355z"/>
						</g>
					</g>
					<g>
						<g>
							<path style="fill:#263238;" d="M249.546,146.645c0,0.144-19.625,0.26-43.828,0.26c-24.212,0-43.833-0.117-43.833-0.26
								s19.621-0.26,43.833-0.26C229.921,146.385,249.546,146.501,249.546,146.645z"/>
						</g>
					</g>
					<g>
						<g>
							<path style="fill:#263238;" d="M249.546,169.683c0,0.144-19.625,0.26-43.828,0.26c-24.212,0-43.833-0.117-43.833-0.26
								c0-0.144,19.621-0.26,43.833-0.26C229.921,169.422,249.546,169.539,249.546,169.683z"/>
						</g>
					</g>
					<g>
						<g>
							<path style="fill:#263238;" d="M249.546,161.332c0,0.144-19.625,0.26-43.828,0.26c-24.212,0-43.833-0.117-43.833-0.26
								s19.621-0.26,43.833-0.26C229.921,161.072,249.546,161.189,249.546,161.332z"/>
						</g>
					</g>
				</g>
				<g>
					<g>
						<g>
							<g>
								<g>
									<g>
										<g>
											<g>
												<g>
													<g>
														<path style="fill:#FF725E;" d="M305.628,111.785c-13.075,0-23.675,10.6-23.675,23.675
															c0,13.075,10.6,23.675,23.675,23.675c13.075,0,23.675-10.6,23.675-23.675
															C329.303,122.385,318.704,111.785,305.628,111.785z M305.986,149.647c-8.032,0-14.543-6.511-14.543-14.543
															s6.511-14.543,14.543-14.543c8.032,0,14.543,6.511,14.543,14.543S314.018,149.647,305.986,149.647z"/>
													</g>
												</g>
											</g>
										</g>
									</g>
									<g>
										<g>
											<g>
												<g>
													<g>
														<g>
															<path style="fill:#E0E0E0;" d="M291.442,135.104c0-5.922,3.542-11.014,8.621-13.282l-3.642-8.178
																c-8.502,3.592-14.468,12.008-14.468,21.818c0,0.333,0.012,0.664,0.025,0.994h9.528
																C291.466,136.009,291.442,135.559,291.442,135.104z"/>
														</g>
													</g>
												</g>
											</g>
										</g>
									</g>
								</g>
							</g>
							<g>
								<g>
									<g>
										<g>
											<g>
												<g>
													<g>
														<path style="fill:#263238;" d="M325.219,165.109c0,0.124-8.772,0.225-19.59,0.225
															c-10.822,0-19.591-0.101-19.591-0.225c0-0.124,8.77-0.225,19.591-0.225
															C316.447,164.885,325.219,164.985,325.219,165.109z"/>
													</g>
												</g>
											</g>
										</g>
									</g>
								</g>
								<g>
									<g>
										<g>
											<g>
												<g>
													<g>
														<path style="fill:#263238;" d="M316.494,168.706c0,0.124-4.865,0.225-10.865,0.225c-6.002,0-10.866-0.1-10.866-0.225
															c0-0.124,4.864-0.225,10.866-0.225C311.629,168.482,316.494,168.582,316.494,168.706z"/>
													</g>
												</g>
											</g>
										</g>
									</g>
								</g>
							</g>
						</g>
					</g>
					<g>
						<g>
							<path style="fill:#263238;" d="M303.918,132.038v0.967l-1.925,4.49h-1.684l1.84-4.233h-1.435v0.842h-1.317v-2.066H303.918z"
								/>
						</g>
						<g>
							<path style="fill:#263238;" d="M308.567,135.741c0,0.974-0.732,1.862-2.377,1.862c-0.757,0-1.56-0.187-2.113-0.537
								l0.553-1.162c0.444,0.296,0.99,0.452,1.513,0.452c0.522,0,0.873-0.21,0.873-0.577c0-0.335-0.226-0.553-1.06-0.553h-1.481
								l0.273-3.188h3.476v1.193h-2.198l-0.07,0.795h0.366C307.936,134.026,308.567,134.774,308.567,135.741z"/>
						</g>
						<g>
							<path style="fill:#263238;" d="M308.836,133.48c0-0.943,0.592-1.512,1.395-1.512c0.811,0,1.404,0.569,1.404,1.512
								c0,0.951-0.592,1.512-1.404,1.512C309.428,134.993,308.836,134.431,308.836,133.48z M313.458,132.038h1.123l-3.726,5.456
								h-1.123L313.458,132.038z M310.691,133.48c0-0.553-0.195-0.772-0.461-0.772c-0.249,0-0.46,0.218-0.46,0.772
								c0,0.553,0.21,0.772,0.46,0.772C310.496,134.252,310.691,134.034,310.691,133.48z M312.687,136.053
								c0-0.943,0.584-1.512,1.395-1.512c0.81,0,1.403,0.569,1.403,1.512c0,0.951-0.592,1.512-1.403,1.512
								C313.271,137.565,312.687,137.003,312.687,136.053z M314.542,136.053c0-0.553-0.202-0.772-0.46-0.772
								c-0.258,0-0.461,0.218-0.461,0.772c0,0.553,0.203,0.772,0.461,0.772C314.339,136.824,314.542,136.606,314.542,136.053z"/>
						</g>
					</g>
				</g>
				<g>
					<g>
						<g>
							<g>
								<g>
									<g>
										<rect x="171.32" y="217.626" style="fill:#EBEBEB;" width="6.757" height="15.574"/>
									</g>
								</g>
							</g>
							<g>
								<g>
									<g>
										<rect x="194.25" y="217.626" style="fill:#EBEBEB;" width="6.757" height="15.574"/>
									</g>
								</g>
							</g>
							<g>
								<g>
									<g>
										<rect x="182.785" y="203.45" style="fill:#F5F5F5;" width="6.757" height="29.751"/>
									</g>
								</g>
							</g>
							<g>
								<g>
									<g>
										<rect x="205.716" y="203.45" style="fill:#F5F5F5;" width="6.757" height="29.751"/>
									</g>
								</g>
							</g>
							<g>
								<g>
									<g>
										<rect x="217.181" y="204.302" style="fill:#EBEBEB;" width="6.757" height="28.899"/>
									</g>
								</g>
							</g>
							<g>
								<g>
									<g>
										<rect x="240.112" y="204.302" style="fill:#EBEBEB;" width="6.757" height="28.899"/>
									</g>
								</g>
							</g>
							<g>
								<g>
									<g>
										<rect x="263.042" y="204.302" style="fill:#EBEBEB;" width="6.757" height="28.899"/>
									</g>
								</g>
							</g>
							<g>
								<g>
									<g>
										<rect x="228.646" y="189.136" style="fill:#F5F5F5;" width="6.757" height="44.065"/>
									</g>
								</g>
							</g>
							<g>
								<g>
									<g>
										<rect x="251.577" y="193.448" style="fill:#F5F5F5;" width="6.757" height="39.753"/>
									</g>
								</g>
							</g>
							<g>
								<g>
									<g>
										<rect x="296.913" y="204.302" style="fill:#EBEBEB;" width="6.757" height="28.899"/>
									</g>
								</g>
							</g>
							<g>
								<g>
									<g>
										<rect x="285.447" y="209.848" style="fill:#F5F5F5;" width="6.757" height="23.353"/>
									</g>
								</g>
							</g>
							<g>
								<g>
									<g>
										<rect x="320.893" y="188.879" style="fill:#EBEBEB;" width="6.757" height="44.322"/>
									</g>
								</g>
							</g>
							<g>
								<g>
									<g>
										<rect x="309.428" y="209.848" style="fill:#F5F5F5;" width="6.757" height="23.353"/>
									</g>
								</g>
							</g>
							<g>
								<g>
									<g>
										<rect x="332.371" y="209.848" style="fill:#F5F5F5;" width="6.757" height="23.353"/>
									</g>
								</g>
							</g>
							<g>
								<g>
									<g>
										<rect x="274.508" y="199.538" style="fill:#EBEBEB;" width="6.757" height="33.663"/>
									</g>
								</g>
							</g>
							<g>
								<g>
									<g>
										<circle style="fill:#FF725E;" cx="231.469" cy="189.136" r="1.738"/>
									</g>
								</g>
							</g>
							<g>
								<g>
									<g>
										<path style="fill:#FF725E;" d="M231.469,192.293c-1.741,0-3.157-1.416-3.157-3.157c0-1.741,1.416-3.157,3.157-3.157
											c1.741,0,3.157,1.416,3.157,3.157C234.626,190.876,233.21,192.293,231.469,192.293z M231.469,186.233
											c-1.6,0-2.902,1.302-2.902,2.902s1.302,2.902,2.902,2.902c1.6,0,2.902-1.302,2.902-2.902S233.069,186.233,231.469,186.233
											z"/>
									</g>
								</g>
							</g>
							<g>
								<g>
									<g>
										<polygon style="fill:#EBEBEB;" points="232.856,184.704 232.766,181.283 233.621,181.297 232.025,179.347 
											230.429,181.315 231.314,181.32 231.402,184.696 										"/>
									</g>
								</g>
							</g>
							<g>
								<g>
									<g>
										<path style="fill:#FF725E;" d="M176.622,210.51c0,0.96-0.778,1.738-1.738,1.738c-0.96,0-1.738-0.778-1.738-1.738
											c0-0.96,0.778-1.738,1.738-1.738C175.844,208.772,176.622,209.55,176.622,210.51z"/>
									</g>
								</g>
							</g>
							<g>
								<g>
									<g>
										<path style="fill:#FF725E;" d="M174.884,213.732c-1.741,0-3.157-1.416-3.157-3.157c0-1.741,1.416-3.157,3.157-3.157
											c1.741,0,3.157,1.416,3.157,3.157C178.041,212.316,176.625,213.732,174.884,213.732z M174.884,207.673
											c-1.6,0-2.902,1.302-2.902,2.902c0,1.6,1.302,2.902,2.902,2.902c1.601,0,2.903-1.302,2.903-2.902
											C177.787,208.975,176.485,207.673,174.884,207.673z"/>
									</g>
								</g>
							</g>
							<g>
								<g>
									<g>
										<polygon style="fill:#EBEBEB;" points="173.835,199.732 173.928,203.29 173.039,203.275 174.699,205.303 176.358,203.257 
											175.438,203.251 175.346,199.741 										"/>
									</g>
								</g>
							</g>
							<g>
								<g>
									<g>
										<polygon style="fill:#EBEBEB;" points="265.808,192.293 265.9,195.85 265.012,195.836 266.671,197.864 268.331,195.817 
											267.411,195.812 267.319,192.302 										"/>
									</g>
								</g>
							</g>
						</g>
						<g>
							<path style="fill:#FF725E;" d="M286.74,223.812l-20.354-19.093c-12.896-6.227-32.807-15.403-35.129-15.274
								c-2.601,0.153-51.962,19.619-70.762,27.107l-0.37-0.929c2.766-1.102,67.779-26.982,71.074-27.176
								c0.023-0.001,0.046-0.002,0.071-0.002c3.612,0,32.335,13.82,35.62,15.407l0.124,0.085l19.891,18.658
								c3.773-1.992,25.405-13.405,25.773-13.568c0.128-0.057,0.472-0.196,30.218-0.194v1c-11.41-0.008-28.562,0.025-29.865,0.135
								c-1.129,0.572-17.362,9.133-25.975,13.678L286.74,223.812z"/>
						</g>
					</g>
					<g>
						<g>
							<g>
								<path style="fill:#FF725E;" d="M268.409,203.875c0,0.96-0.778,1.738-1.738,1.738s-1.738-0.778-1.738-1.738
									s0.778-1.738,1.738-1.738S268.409,202.915,268.409,203.875z"/>
							</g>
						</g>
					</g>
					<g>
						<g>
							<g>
								<path style="fill:#FF725E;" d="M266.671,207.097c-1.741,0-3.157-1.416-3.157-3.157c0-1.741,1.416-3.157,3.157-3.157
									c1.741,0,3.157,1.416,3.157,3.157C269.828,205.681,268.412,207.097,266.671,207.097z M266.671,201.038
									c-1.6,0-2.902,1.302-2.902,2.902s1.302,2.902,2.902,2.902c1.6,0,2.902-1.302,2.902-2.902S268.272,201.038,266.671,201.038z"
									/>
							</g>
						</g>
					</g>
					<g>
						<g>
							<g>
								<path style="fill:#FF725E;" d="M314.617,209.058c0,0.96-0.778,1.738-1.738,1.738c-0.96,0-1.738-0.778-1.738-1.738
									c0-0.96,0.778-1.738,1.738-1.738C313.839,207.32,314.617,208.098,314.617,209.058z"/>
							</g>
						</g>
					</g>
					<g>
						<g>
							<g>
								<path style="fill:#FF725E;" d="M312.879,212.28c-1.741,0-3.157-1.416-3.157-3.157c0-1.741,1.416-3.157,3.157-3.157
									c1.741,0,3.157,1.416,3.157,3.157C316.036,210.864,314.62,212.28,312.879,212.28z M312.879,206.221
									c-1.6,0-2.902,1.302-2.902,2.902c0,1.6,1.302,2.902,2.902,2.902c1.6,0,2.902-1.302,2.902-2.902
									C315.782,207.523,314.479,206.221,312.879,206.221z"/>
							</g>
						</g>
					</g>
					<g>
						<g>
							<g>
								<polygon style="fill:#EBEBEB;" points="311.943,198.731 312.036,202.288 311.147,202.274 312.806,204.302 314.466,202.255 
									313.546,202.25 313.454,198.74 								"/>
							</g>
						</g>
					</g>
				</g>
			</g>
			<g>
				<g>
					<path style="fill:#263238;" d="M347.509,250.553c0,0,0.18-0.018,0.535-0.04c0.179-0.011,0.4-0.024,0.663-0.04
						c0.263-0.041,0.567-0.089,0.913-0.143c0.691-0.119,1.535-0.356,2.501-0.739c0.947-0.424,2.014-1.005,3.065-1.883
						c1.047-0.875,2.072-2.048,2.862-3.539c0.787-1.487,1.324-3.297,1.381-5.292c-0.002-4.014-0.004-8.643-0.007-13.855
						c-0.02-20.858-0.048-51.03-0.083-88.31c-0.01-18.642-0.02-39.062-0.032-60.983c-0.001-2.74-0.002-5.504-0.004-8.29
						c-0.007-1.402,0.072-2.789-0.342-4.1c-0.404-1.302-1.133-2.519-2.137-3.463c-0.997-0.951-2.243-1.647-3.596-1.967
						c-1.338-0.362-2.784-0.198-4.224-0.236c-2.876,0.001-5.774,0.002-8.693,0.003c-11.677,0.004-23.694,0.007-36.018,0.011
						c-49.296,0.006-103.491,0.013-160.377,0.021c-1.766,0.018-3.582-0.04-5.298,0.04c-1.703,0.177-3.318,1.009-4.459,2.277
						c-1.147,1.261-1.812,2.945-1.819,4.647c-0.001,1.761-0.002,3.519-0.003,5.275c0,7.025-0.001,14.003-0.001,20.93
						c-0.001,13.855-0.003,27.506-0.004,40.92c-0.005,26.828-0.01,52.706-0.015,77.357c-0.002,6.163-0.003,12.249-0.005,18.254
						c-0.001,3.003-0.002,5.985-0.003,8.947c0.019,1.486-0.085,2.961,0.209,4.371c0.269,1.417,0.799,2.776,1.552,3.993
						c1.499,2.442,3.899,4.28,6.601,5.101c1.355,0.438,2.757,0.52,4.182,0.51c1.427,0.001,2.849,0.001,4.265,0.002
						c5.664,0.002,11.239,0.005,16.719,0.007c21.922,0.011,42.343,0.022,60.985,0.032c37.281,0.035,67.45,0.063,88.305,0.083
						c10.421,0.021,18.514,0.038,24.008,0.049c2.74,0.011,4.831,0.02,6.243,0.026C346.788,250.535,347.509,250.553,347.509,250.553
						s-0.721,0.018-2.127,0.027c-1.413,0.006-3.503,0.014-6.243,0.026c-5.494,0.011-13.587,0.028-24.008,0.049
						c-20.856,0.02-51.025,0.048-88.305,0.083c-18.643,0.01-39.063,0.02-60.985,0.032c-5.481,0.002-11.055,0.004-16.719,0.007
						c-1.416,0.001-2.838,0.001-4.265,0.002c-1.421,0.012-2.918-0.073-4.313-0.526c-2.807-0.851-5.3-2.757-6.859-5.293
						c-0.783-1.264-1.335-2.677-1.615-4.149c-0.307-1.484-0.199-2.989-0.22-4.456c-0.001-2.962-0.002-5.944-0.003-8.947
						c-0.002-6.005-0.003-12.091-0.005-18.254c-0.005-24.651-0.01-50.529-0.015-77.357c-0.001-13.414-0.003-27.066-0.004-40.92
						c0-6.927-0.001-13.906-0.001-20.93c0.001-1.757,0.002-3.517,0.003-5.279c0.007-1.827,0.721-3.64,1.953-4.992
						c1.224-1.36,2.96-2.255,4.79-2.445c1.825-0.086,3.563-0.024,5.353-0.043c56.885,0.007,111.081,0.014,160.377,0.021
						c12.324,0.004,24.341,0.007,36.018,0.011c2.919,0.001,5.817,0.002,8.693,0.003l2.153,0.001c0.726,0.007,1.47,0.063,2.178,0.251
						c1.429,0.34,2.745,1.076,3.796,2.081c1.059,0.997,1.828,2.282,2.253,3.658c0.438,1.395,0.351,2.854,0.358,4.227
						c-0.001,2.787-0.002,5.55-0.003,8.29c-0.011,21.921-0.022,42.341-0.032,60.983c-0.035,37.281-0.063,67.452-0.083,88.31
						c-0.015,5.213-0.029,9.844-0.041,13.859c-0.066,2.021-0.618,3.85-1.421,5.349c-0.806,1.503-1.849,2.682-2.91,3.558
						c-1.065,0.879-2.145,1.457-3.102,1.875c-0.975,0.378-1.826,0.607-2.522,0.718c-0.348,0.049-0.654,0.093-0.918,0.131
						c-0.264,0.011-0.486,0.02-0.666,0.027C347.688,250.553,347.509,250.553,347.509,250.553z"/>
				</g>
			</g>
		</g>
		<g>
			<g>
				<g>
					
						<ellipse transform="matrix(0.2287 -0.9735 0.9735 0.2287 126.7021 471.3669)" style="fill:#F5F5F5;" cx="360.826" cy="155.723" rx="10.511" ry="10.511"/>
				</g>
				<g>
					<g>
						<path style="fill:#263238;" d="M350.315,155.723c0.069-0.005,0.011,0.937,0.427,2.542c0.411,1.574,1.468,3.884,3.836,5.667
							c1.173,0.871,2.649,1.61,4.348,1.904c1.688,0.284,3.59,0.226,5.399-0.466c0.91-0.318,1.788-0.798,2.594-1.403
							c0.816-0.593,1.556-1.329,2.166-2.182c1.261-1.68,1.971-3.837,1.992-6.06c-0.02-2.224-0.73-4.382-1.991-6.063
							c-0.61-0.853-1.35-1.589-2.166-2.182c-0.806-0.605-1.684-1.085-2.595-1.403c-1.809-0.692-3.712-0.75-5.399-0.466
							c-1.699,0.295-3.175,1.033-4.348,1.904c-2.368,1.783-3.424,4.093-3.835,5.667
							C350.326,154.786,350.384,155.728,350.315,155.723c0,0-0.132-0.939,0.23-2.591c0.359-1.618,1.386-4.024,3.809-5.91
							c1.2-0.921,2.724-1.71,4.492-2.036c1.755-0.315,3.742-0.272,5.642,0.439c0.956,0.327,1.879,0.824,2.727,1.454
							c0.858,0.618,1.638,1.387,2.281,2.28c1.329,1.759,2.081,4.029,2.1,6.365c-0.02,2.335-0.773,4.604-2.101,6.363
							c-0.644,0.892-1.423,1.661-2.281,2.279c-0.848,0.63-1.771,1.127-2.727,1.454c-1.9,0.711-3.887,0.755-5.642,0.439
							c-1.767-0.326-3.292-1.114-4.492-2.036c-2.423-1.886-3.451-4.292-3.809-5.91C350.184,156.662,350.315,155.723,350.315,155.723
							z"/>
					</g>
				</g>
			</g>
			<g>
				<path style="fill:#263238;" d="M359.235,158.703c-0.148,0-0.296-0.066-0.395-0.192c-0.17-0.218-0.131-0.532,0.087-0.702
					l2.7-2.107l-2.726-2.061c-0.22-0.167-0.264-0.48-0.097-0.7c0.166-0.221,0.479-0.264,0.7-0.098l3.245,2.453
					c0.124,0.094,0.197,0.24,0.198,0.395c0.001,0.155-0.07,0.303-0.192,0.398l-3.214,2.508
					C359.451,158.669,359.342,158.703,359.235,158.703z"/>
			</g>
		</g>
		<g>
			<g>
				<g>
					
						<ellipse transform="matrix(0.2287 -0.9735 0.9735 0.2287 -51.6571 247.515)" style="fill:#F5F5F5;" cx="130.376" cy="156.358" rx="10.511" ry="10.511"/>
				</g>
				<g>
					<g>
						<path style="fill:#263238;" d="M140.887,156.358c-0.069,0.005-0.011-0.937-0.427-2.542c-0.411-1.574-1.468-3.884-3.836-5.667
							c-1.173-0.871-2.648-1.61-4.348-1.904c-1.688-0.284-3.59-0.226-5.399,0.466c-0.91,0.318-1.788,0.798-2.595,1.403
							c-0.816,0.593-1.556,1.329-2.166,2.182c-1.261,1.68-1.971,3.837-1.992,6.06c0.02,2.224,0.73,4.382,1.991,6.063
							c0.61,0.853,1.35,1.589,2.166,2.182c0.806,0.605,1.684,1.085,2.595,1.403c1.809,0.692,3.712,0.75,5.4,0.466
							c1.699-0.294,3.175-1.033,4.348-1.904c2.368-1.783,3.424-4.093,3.836-5.667C140.875,157.295,140.818,156.353,140.887,156.358
							c0,0,0.132,0.939-0.23,2.591c-0.358,1.618-1.386,4.024-3.809,5.91c-1.2,0.921-2.724,1.71-4.492,2.036
							c-1.755,0.315-3.743,0.272-5.642-0.439c-0.956-0.327-1.879-0.824-2.727-1.454c-0.858-0.618-1.638-1.387-2.281-2.28
							c-1.329-1.759-2.081-4.029-2.101-6.365c0.02-2.335,0.773-4.604,2.101-6.363c0.644-0.892,1.423-1.661,2.281-2.279
							c0.848-0.63,1.771-1.127,2.727-1.454c1.9-0.711,3.887-0.755,5.642-0.439c1.768,0.326,3.292,1.114,4.492,2.036
							c2.423,1.886,3.451,4.292,3.809,5.91C141.019,155.419,140.887,156.358,140.887,156.358z"/>
					</g>
				</g>
			</g>
			<g>
				<path style="fill:#263238;" d="M131.998,159.338c-0.105,0-0.211-0.033-0.301-0.101l-3.245-2.453
					c-0.124-0.094-0.197-0.24-0.198-0.395c-0.001-0.155,0.07-0.302,0.192-0.398l3.213-2.508c0.217-0.171,0.531-0.131,0.702,0.086
					c0.17,0.218,0.131,0.532-0.086,0.702l-2.7,2.107l2.725,2.061c0.22,0.167,0.264,0.48,0.097,0.701
					C132.298,159.27,132.149,159.338,131.998,159.338z"/>
			</g>
		</g>
	</g>
	<g>
		<g>
			<g>
				<g>
					<path style="fill:#FFFFFF;" d="M354.13,334.546h-84.99c-3.251,0-5.887-2.636-5.887-5.887v-52.038
						c0-3.251,2.636-5.887,5.887-5.887h84.99c3.251,0,5.887,2.636,5.887,5.887v52.038
						C360.016,331.91,357.381,334.546,354.13,334.546z"/>
				</g>
				<g>
					<g>
						<path style="fill:#263238;" d="M354.13,334.546c-0.001-0.018,0.274-0.012,0.796-0.087c0.519-0.073,1.306-0.253,2.185-0.791
							c0.874-0.52,1.843-1.446,2.406-2.84c0.615-1.394,0.352-3.187,0.399-5.146c-0.02-7.885-0.048-19.267-0.083-33.329
							c-0.005-3.518-0.011-7.204-0.017-11.044c-0.001-0.96-0.003-1.93-0.004-2.909c-0.023-0.979,0.064-1.982-0.118-2.917
							c-0.385-1.883-1.803-3.589-3.711-4.217c-0.941-0.365-1.96-0.312-3.021-0.313c-1.052,0.001-2.112,0.002-3.181,0.003
							c-2.138,0.002-4.309,0.004-6.512,0.006c-4.407,0.004-8.943,0.007-13.594,0.011c-18.606,0.006-39.059,0.013-60.528,0.02
							c-1.284,0.009-2.557,0.447-3.548,1.256c-0.987,0.808-1.694,1.946-1.959,3.186c-0.134,0.621-0.13,1.25-0.127,1.921l0,1.978
							c0,1.317,0,2.629-0.001,3.936c-0.001,5.229-0.003,10.381-0.004,15.444c-0.005,10.125-0.01,19.891-0.015,29.195
							c-0.039,1.171,0.074,2.266,0.594,3.264c0.486,0.988,1.272,1.818,2.212,2.365c0.942,0.554,2.02,0.808,3.115,0.774
							c1.118,0.001,2.228,0.002,3.329,0.003c4.407,0.004,8.686,0.009,12.823,0.013c8.273,0.012,15.979,0.022,23.016,0.032
							c14.062,0.035,25.443,0.063,33.327,0.083c3.924,0.021,6.974,0.038,9.061,0.049c1.025,0.011,1.81,0.02,2.356,0.026
							C353.858,334.528,354.13,334.546,354.13,334.546s-0.272,0.018-0.803,0.027c-0.546,0.006-1.331,0.015-2.356,0.026
							c-2.087,0.011-5.137,0.028-9.061,0.049c-7.884,0.02-19.265,0.048-33.327,0.083c-7.037,0.01-14.744,0.02-23.016,0.032
							c-4.137,0.004-8.416,0.009-12.823,0.013c-1.102,0.001-2.212,0.002-3.329,0.003c-1.138,0.038-2.34-0.234-3.351-0.833
							c-1.019-0.59-1.87-1.487-2.4-2.558c-0.566-1.053-0.691-2.332-0.649-3.476c-0.005-9.304-0.01-19.07-0.015-29.195
							c-0.001-5.063-0.003-10.215-0.004-15.444c0-1.307,0-2.619-0.001-3.936l0-1.978c-0.003-0.647-0.008-1.351,0.139-2.03
							c0.289-1.357,1.061-2.6,2.14-3.482c1.081-0.884,2.476-1.365,3.876-1.372c21.469,0.007,41.922,0.014,60.528,0.02
							c4.651,0.004,9.186,0.007,13.594,0.011c2.203,0.002,4.375,0.004,6.512,0.006c1.069,0.001,2.129,0.002,3.181,0.003
							c1.028,0.003,2.15-0.052,3.162,0.343c2.051,0.682,3.571,2.517,3.978,4.542c0.194,1.033,0.096,2.025,0.119,3
							c-0.001,0.979-0.003,1.949-0.004,2.909c-0.006,3.84-0.011,7.526-0.017,11.044c-0.035,14.062-0.063,25.444-0.083,33.329
							c-0.004,0.983-0.008,1.912-0.012,2.785c0.007,0.88-0.15,1.711-0.446,2.419c-0.593,1.425-1.598,2.357-2.496,2.872
							c-0.904,0.533-1.705,0.698-2.231,0.754C354.403,334.57,354.13,334.546,354.13,334.546z"/>
					</g>
				</g>
			</g>
			<g>
				<g>
					<g>
						<g>
							<g>
								<g>
									<g>
										<g>
											<rect x="306.621" y="307.787" style="fill:#FF725E;" width="3.713" height="14.776"/>
										</g>
									</g>
								</g>
							</g>
							<g>
								<g>
									<g>
										<g>
											<rect x="275.607" y="305.646" style="fill:#FF725E;" width="3.713" height="16.917"/>
										</g>
									</g>
								</g>
							</g>
							<g>
								<g>
									<g>
										<g>
											<rect x="283.361" y="302.12" style="fill:#FF725E;" width="3.713" height="20.443"/>
										</g>
									</g>
								</g>
							</g>
							<g>
								<g>
									<g>
										<g>
											<rect x="291.114" y="303.241" style="fill:#FF725E;" width="3.713" height="19.322"/>
										</g>
									</g>
								</g>
							</g>
							<g>
								<g>
									<g>
										<g>
											<rect x="298.867" y="296.704" style="fill:#FF725E;" width="3.713" height="25.859"/>
										</g>
									</g>
								</g>
							</g>
							<g>
								<g>
									<g>
										<g>
											<rect x="314.374" y="296.831" style="fill:#FF725E;" width="3.713" height="25.733"/>
										</g>
									</g>
								</g>
							</g>
							<g>
								<g>
									<g>
										<g>
											<rect x="322.127" y="305.282" style="fill:#FF725E;" width="3.713" height="17.281"/>
										</g>
									</g>
								</g>
							</g>
							<g>
								<g>
									<g>
										<g>
											<rect x="329.88" y="297.964" style="fill:#FF725E;" width="3.713" height="24.599"/>
										</g>
									</g>
								</g>
							</g>
							<g>
								<g>
									<g>
										<g>
											<rect x="337.634" y="292.423" style="fill:#FF725E;" width="3.713" height="30.141"/>
										</g>
									</g>
								</g>
							</g>
							<g>
								<g>
									<g>
										<g>
											<rect x="345.387" y="297.838" style="fill:#FF725E;" width="3.713" height="24.725"/>
										</g>
									</g>
								</g>
							</g>
						</g>
					</g>
				</g>
			</g>
		</g>
		<g>
			<g>
				<path style="fill:#E0E0E0;" d="M275.917,279.518c0,1.291-1.047,2.338-2.338,2.338c-1.291,0-2.338-1.047-2.338-2.338
					c0-1.292,1.047-2.338,2.338-2.338C274.87,277.18,275.917,278.226,275.917,279.518z"/>
			</g>
			<g>
				<path style="fill:#E0E0E0;" d="M281.954,279.518c0,1.291-1.047,2.338-2.338,2.338c-1.291,0-2.338-1.047-2.338-2.338
					c0-1.292,1.047-2.338,2.338-2.338C280.907,277.18,281.954,278.226,281.954,279.518z"/>
			</g>
			<g>
				<path style="fill:#E0E0E0;" d="M287.992,279.518c0,1.291-1.047,2.338-2.338,2.338c-1.292,0-2.338-1.047-2.338-2.338
					c0-1.292,1.047-2.338,2.338-2.338C286.945,277.18,287.992,278.226,287.992,279.518z"/>
			</g>
		</g>
	</g>
	<g>
		<g>
			<g>
				<path style="fill:#FFFFFF;" d="M454.25,261.898h-65.667c-4.654,0-8.427-3.773-8.427-8.427V141.448
					c0-4.654,3.773-8.427,8.427-8.427h65.667c4.654,0,8.427,3.773,8.427,8.427v112.023
					C462.677,258.125,458.904,261.898,454.25,261.898z"/>
			</g>
			<g>
				<g>
					<path style="fill:#263238;" d="M454.25,261.898c0,0,0.089-0.013,0.265-0.027c0.175-0.022,0.44-0.012,0.783-0.072
						c0.686-0.086,1.713-0.317,2.911-0.948c1.174-0.649,2.52-1.76,3.439-3.516c0.456-0.872,0.79-1.899,0.897-3.029
						c0.08-1.125,0.016-2.359,0.03-3.646c-0.02-10.343-0.048-25.288-0.083-43.753c-0.016-18.476-0.035-40.47-0.056-64.891
						c0.201-3.007-1.358-6.042-4-7.588c-2.635-1.7-5.98-1.016-9.141-1.158c-6.392,0.002-12.919,0.004-19.563,0.006
						c-13.289,0.002-27.047,0.004-41.139,0.005c-1.709,0.011-3.407,0.54-4.779,1.547c-1.385,0.983-2.427,2.421-2.966,4.016
						c-0.58,1.593-0.403,3.336-0.432,5.071c0,1.728,0,3.451,0,5.167c-0.001,6.864-0.003,13.628-0.004,20.274
						c-0.005,13.292-0.01,26.112-0.015,38.326c-0.008,12.213-0.016,23.819-0.024,34.681c-0.002,2.715-0.005,5.384-0.007,8.004
						c0.016,1.301-0.041,2.628,0.035,3.874c0.108,1.251,0.529,2.454,1.165,3.504c1.265,2.123,3.497,3.54,5.834,3.864
						c1.16,0.156,2.376,0.076,3.553,0.099c1.182,0.001,2.35,0.003,3.505,0.004c18.465,0.035,33.409,0.063,43.751,0.083
						c5.157,0.021,9.164,0.038,11.895,0.049c1.351,0.011,2.385,0.02,3.093,0.026C453.893,261.88,454.25,261.898,454.25,261.898
						s-0.357,0.018-1.054,0.027c-0.709,0.006-1.742,0.015-3.093,0.026c-2.731,0.011-6.738,0.028-11.895,0.049
						c-10.341,0.02-25.285,0.048-43.751,0.083c-1.155,0.001-2.323,0.003-3.505,0.004c-1.183-0.021-2.369,0.066-3.608-0.095
						c-2.449-0.334-4.791-1.814-6.122-4.036c-0.67-1.1-1.114-2.363-1.23-3.676c-0.083-1.321-0.025-2.593-0.045-3.911
						c-0.002-2.62-0.005-5.289-0.007-8.004c-0.008-10.862-0.016-22.468-0.024-34.681c-0.005-12.214-0.01-25.035-0.015-38.326
						c-0.001-6.646-0.003-13.41-0.004-20.274c0-1.716,0-3.438-0.001-5.167l0.006-2.601c0.006-0.895,0.177-1.784,0.452-2.636
						c0.573-1.698,1.682-3.226,3.154-4.272c1.458-1.071,3.269-1.635,5.084-1.646c14.092,0.002,27.85,0.004,41.139,0.005
						c6.644,0.002,13.171,0.004,19.563,0.006c1.598,0.001,3.188,0.001,4.769,0.002c1.611-0.012,3.255,0.386,4.623,1.233
						c1.388,0.816,2.512,2.038,3.25,3.442c0.374,0.703,0.62,1.463,0.799,2.231c0.143,0.77,0.199,1.581,0.18,2.334
						c-0.021,24.421-0.04,46.415-0.056,64.891c-0.035,18.465-0.063,33.41-0.083,43.753c-0.023,1.295,0.035,2.503-0.055,3.663
						c-0.118,1.153-0.467,2.198-0.938,3.083c-0.951,1.781-2.331,2.895-3.527,3.537c-1.221,0.625-2.261,0.84-2.954,0.909
						C454.609,261.917,454.25,261.898,454.25,261.898z"/>
				</g>
			</g>
		</g>
		<g>
			<g>
				<circle style="fill:#E0E0E0;" cx="391.278" cy="144.069" r="2.529"/>
			</g>
			<g>
				<path style="fill:#E0E0E0;" d="M400.336,144.069c0,1.397-1.132,2.529-2.529,2.529c-1.397,0-2.529-1.132-2.529-2.529
					c0-1.397,1.132-2.529,2.529-2.529C399.204,141.54,400.336,142.673,400.336,144.069z"/>
			</g>
			<g>
				<circle style="fill:#E0E0E0;" cx="404.336" cy="144.069" r="2.529"/>
			</g>
		</g>
		<g>
			<g>
				<path style="fill:#263238;" d="M450.61,157.347c0,0.144-13.071,0.26-29.191,0.26c-16.126,0-29.194-0.117-29.194-0.26
					c0-0.144,13.068-0.26,29.194-0.26C437.539,157.087,450.61,157.204,450.61,157.347z"/>
			</g>
		</g>
		<g>
			<g>
				<path style="fill:#263238;" d="M450.61,162.486c0,0.144-13.071,0.26-29.191,0.26c-16.126,0-29.194-0.117-29.194-0.26
					c0-0.144,13.068-0.26,29.194-0.26C437.539,162.226,450.61,162.343,450.61,162.486z"/>
			</g>
		</g>
		<g>
			<g>
				<path style="fill:#263238;" d="M450.61,167.626c0,0.144-13.071,0.26-29.191,0.26c-16.126,0-29.194-0.117-29.194-0.26
					c0-0.144,13.068-0.26,29.194-0.26C437.539,167.365,450.61,167.482,450.61,167.626z"/>
			</g>
		</g>
		<g>
			<g>
				<path style="fill:#263238;" d="M450.61,172.765c0,0.144-13.071,0.26-29.191,0.26c-16.126,0-29.194-0.117-29.194-0.26
					s13.068-0.26,29.194-0.26C437.539,172.505,450.61,172.621,450.61,172.765z"/>
			</g>
		</g>
		<g>
			<g>
				<path style="fill:#263238;" d="M450.61,177.904c0,0.144-13.071,0.26-29.191,0.26c-16.126,0-29.194-0.117-29.194-0.26
					c0-0.144,13.068-0.26,29.194-0.26C437.539,177.644,450.61,177.76,450.61,177.904z"/>
			</g>
		</g>
		<g>
			<g>
				<path style="fill:#263238;" d="M450.61,183.044c0,0.144-13.071,0.26-29.191,0.26c-16.126,0-29.194-0.117-29.194-0.26
					s13.068-0.26,29.194-0.26C437.539,182.783,450.61,182.9,450.61,183.044z"/>
			</g>
		</g>
		<g>
			<g>
				<path style="fill:#263238;" d="M450.61,222.366c0,0.144-13.071,0.26-29.191,0.26c-16.126,0-29.194-0.117-29.194-0.26
					s13.068-0.26,29.194-0.26C437.539,222.106,450.61,222.222,450.61,222.366z"/>
			</g>
		</g>
		<g>
			<g>
				<path style="fill:#263238;" d="M450.61,227.961c0,0.144-13.071,0.26-29.191,0.26c-16.126,0-29.194-0.117-29.194-0.26
					c0-0.144,13.068-0.26,29.194-0.26C437.539,227.7,450.61,227.817,450.61,227.961z"/>
			</g>
		</g>
		<g>
			<g>
				<path style="fill:#263238;" d="M450.61,233.555c0,0.144-13.071,0.26-29.191,0.26c-16.126,0-29.194-0.117-29.194-0.26
					c0-0.144,13.068-0.26,29.194-0.26C437.539,233.295,450.61,233.412,450.61,233.555z"/>
			</g>
		</g>
		<g>
			<g>
				<path style="fill:#263238;" d="M450.61,239.15c0,0.144-13.071,0.26-29.191,0.26c-16.126,0-29.194-0.117-29.194-0.26
					c0-0.144,13.068-0.26,29.194-0.26C437.539,238.89,450.61,239.007,450.61,239.15z"/>
			</g>
		</g>
		<g>
			<g>
				<path style="fill:#263238;" d="M450.61,244.745c0,0.144-13.071,0.26-29.191,0.26c-16.126,0-29.194-0.117-29.194-0.26
					s13.068-0.26,29.194-0.26C437.539,244.485,450.61,244.601,450.61,244.745z"/>
			</g>
		</g>
		<g>
			<g>
				<g>
					<g>
						<path style="fill:#E0E0E0;" d="M452.125,190.478c0,0-0.1,0.005-0.297,0.007c-0.202,0.001-0.493,0.004-0.874,0.007
							c-0.775,0.003-1.91,0.007-3.377,0.013c-2.947,0.005-7.223,0.013-12.562,0.022c-10.69,0.007-25.634,0.016-42.676,0.026
							l0.105-0.075c0.001,3.354,0.001,6.832,0.002,10.391c-0.001,3.668-0.001,7.249-0.002,10.706l-0.104-0.075
							c16.934,0.011,31.77,0.02,42.379,0.026c5.299,0.01,9.54,0.017,12.464,0.022c1.455,0.006,2.581,0.01,3.35,0.013
							c0.378,0.003,0.666,0.005,0.867,0.007c0.195,0.002,0.294,0.007,0.294,0.007s-0.099,0.005-0.294,0.007
							c-0.2,0.002-0.489,0.004-0.867,0.007c-0.768,0.003-1.894,0.007-3.35,0.013c-2.923,0.005-7.165,0.013-12.464,0.022
							c-10.609,0.007-25.445,0.016-42.379,0.026h-0.104l0-0.075c-0.001-3.458-0.001-7.039-0.002-10.706
							c0.001-3.559,0.001-7.037,0.002-10.391v-0.075l0.105,0c17.041,0.01,31.986,0.02,42.676,0.026
							c5.339,0.009,9.615,0.017,12.562,0.022c1.467,0.006,2.602,0.01,3.377,0.013c0.381,0.003,0.672,0.005,0.874,0.007
							C452.025,190.473,452.125,190.478,452.125,190.478z"/>
					</g>
				</g>
			</g>
			<g>
				<g>
					<g>
						<path style="fill:#E0E0E0;" d="M452.125,194.029c0,0.042-13.384,0.077-29.891,0.077c-16.513,0-29.894-0.034-29.894-0.077
							s13.382-0.077,29.894-0.077C438.741,193.953,452.125,193.987,452.125,194.029z"/>
					</g>
				</g>
			</g>
			<g>
				<g>
					<g>
						<path style="fill:#E0E0E0;" d="M452.125,196.936c0,0.042-13.384,0.077-29.891,0.077c-16.513,0-29.894-0.034-29.894-0.077
							c0-0.042,13.382-0.077,29.894-0.077C438.741,196.859,452.125,196.893,452.125,196.936z"/>
					</g>
				</g>
			</g>
			<g>
				<g>
					<g>
						<path style="fill:#E0E0E0;" d="M452.125,199.842c0,0.042-13.384,0.077-29.891,0.077c-16.513,0-29.894-0.034-29.894-0.077
							s13.382-0.077,29.894-0.077C438.741,199.765,452.125,199.799,452.125,199.842z"/>
					</g>
				</g>
			</g>
			<g>
				<g>
					<g>
						<path style="fill:#E0E0E0;" d="M452.125,202.748c0,0.042-13.384,0.077-29.891,0.077c-16.513,0-29.894-0.034-29.894-0.077
							s13.382-0.077,29.894-0.077C438.741,202.671,452.125,202.705,452.125,202.748z"/>
					</g>
				</g>
			</g>
			<g>
				<g>
					<g>
						<path style="fill:#E0E0E0;" d="M452.125,205.654c0,0.042-13.384,0.077-29.891,0.077c-16.513,0-29.894-0.034-29.894-0.077
							c0-0.042,13.382-0.076,29.894-0.076C438.741,205.577,452.125,205.611,452.125,205.654z"/>
					</g>
				</g>
			</g>
			<g>
				<g>
					<g>
						<path style="fill:#E0E0E0;" d="M392.34,208.56c0-0.042,13.384-0.077,29.891-0.077c16.512,0,29.894,0.034,29.894,0.077
							c0,0.042-13.382,0.077-29.894,0.077C405.724,208.636,392.34,208.602,392.34,208.56z"/>
					</g>
				</g>
			</g>
			<g>
				<g>
					<g>
						<path style="fill:#E0E0E0;" d="M400.814,211.896c-0.042,0-0.077-4.795-0.077-10.709c0-5.916,0.034-10.71,0.077-10.71
							c0.042,0,0.077,4.794,0.077,10.71C400.891,207.101,400.856,211.896,400.814,211.896z"/>
					</g>
				</g>
			</g>
			<g>
				<g>
					<g>
						<path style="fill:#E0E0E0;" d="M409.425,211.896c-0.042,0-0.077-4.795-0.077-10.709c0-5.916,0.034-10.71,0.077-10.71
							s0.077,4.794,0.077,10.71C409.501,207.101,409.467,211.896,409.425,211.896z"/>
					</g>
				</g>
			</g>
			<g>
				<g>
					<g>
						<path style="fill:#E0E0E0;" d="M418.035,211.896c-0.042,0-0.077-4.795-0.077-10.709c0-5.916,0.034-10.71,0.077-10.71
							s0.077,4.794,0.077,10.71C418.112,207.101,418.077,211.896,418.035,211.896z"/>
					</g>
				</g>
			</g>
			<g>
				<g>
					<g>
						<path style="fill:#E0E0E0;" d="M426.645,211.896c-0.042,0-0.076-4.795-0.076-10.709c0-5.916,0.034-10.71,0.076-10.71
							c0.042,0,0.077,4.794,0.077,10.71C426.722,207.101,426.688,211.896,426.645,211.896z"/>
					</g>
				</g>
			</g>
			<g>
				<g>
					<g>
						<path style="fill:#E0E0E0;" d="M435.256,211.896c-0.042,0-0.077-4.795-0.077-10.709c0-5.916,0.034-10.71,0.077-10.71
							c0.042,0,0.077,4.794,0.077,10.71C435.333,207.101,435.298,211.896,435.256,211.896z"/>
					</g>
				</g>
			</g>
			<g>
				<g>
					<g>
						<path style="fill:#E0E0E0;" d="M443.591,211.896c-0.042,0-0.077-4.795-0.077-10.709c0-5.916,0.034-10.71,0.077-10.71
							c0.042,0,0.077,4.794,0.077,10.71C443.668,207.101,443.633,211.896,443.591,211.896z"/>
					</g>
				</g>
			</g>
			<g>
				<g>
					<g>
						<path style="fill:#E0E0E0;" d="M452.202,211.896c-0.042,0-0.077-4.795-0.077-10.709c0-5.916,0.034-10.71,0.077-10.71
							s0.077,4.794,0.077,10.71C452.278,207.101,452.244,211.896,452.202,211.896z"/>
					</g>
				</g>
			</g>
			<g>
				<g>
					<path style="fill:#FF725E;" d="M401.338,208.56c0,0.289-0.235,0.524-0.524,0.524c-0.289,0-0.524-0.235-0.524-0.524
						c0-0.289,0.235-0.524,0.524-0.524C401.104,208.036,401.338,208.27,401.338,208.56z"/>
				</g>
			</g>
			<g>
				<g>
					<circle style="fill:#FF725E;" cx="409.425" cy="202.748" r="0.524"/>
				</g>
			</g>
			<g>
				<g>
					<path style="fill:#FF725E;" d="M418.559,205.604c0,0.289-0.235,0.524-0.524,0.524c-0.29,0-0.524-0.235-0.524-0.524
						c0-0.29,0.235-0.524,0.524-0.524C418.325,205.08,418.559,205.314,418.559,205.604z"/>
				</g>
			</g>
			<g>
				<g>
					<path style="fill:#FF725E;" d="M427.117,199.483c0.427,0.561-0.207,1.195-0.768,0.768c0,0,0,0,0,0
						C425.922,199.69,426.556,199.056,427.117,199.483z"/>
				</g>
			</g>
			<g>
				<g>
					<path style="fill:#FF725E;" d="M435.826,199.483c0.427,0.561-0.207,1.195-0.768,0.768c0,0,0,0,0,0
						C434.631,199.69,435.265,199.056,435.826,199.483z"/>
				</g>
			</g>
			<g>
				<g>
					<path style="fill:#FF725E;" d="M443.974,205.188c0.428,0.561-0.207,1.195-0.768,0.768l0,0
						C442.779,205.395,443.413,204.761,443.974,205.188z"/>
				</g>
			</g>
			<g>
				<g>
					<path style="fill:#455A64;" d="M409.949,196.936c0,0.289-0.235,0.524-0.524,0.524c-0.289,0-0.524-0.235-0.524-0.524
						c0-0.289,0.235-0.524,0.524-0.524C409.714,196.411,409.949,196.646,409.949,196.936z"/>
				</g>
			</g>
			<g>
				<g>
					<path style="fill:#455A64;" d="M401.338,205.654c0,0.29-0.235,0.524-0.524,0.524c-0.289,0-0.524-0.235-0.524-0.524
						c0-0.289,0.235-0.524,0.524-0.524C401.104,205.13,401.338,205.364,401.338,205.654z"/>
				</g>
			</g>
			<g>
				<g>
					<path style="fill:#455A64;" d="M443.975,208.176c0.427,0.561-0.207,1.195-0.768,0.768
						C442.78,208.383,443.414,207.748,443.975,208.176z"/>
				</g>
			</g>
			<g>
				<g>
					<path style="fill:#455A64;" d="M435.78,202.748c0,0.289-0.235,0.524-0.524,0.524c-0.29,0-0.524-0.235-0.524-0.524
						c0-0.289,0.235-0.524,0.524-0.524C435.546,202.223,435.78,202.458,435.78,202.748z"/>
				</g>
			</g>
			<g>
				<g>
					<path style="fill:#455A64;" d="M427.257,202.671c0,0.289-0.235,0.524-0.524,0.524c-0.289,0-0.524-0.235-0.524-0.524
						c0-0.289,0.235-0.524,0.524-0.524C427.023,202.147,427.257,202.382,427.257,202.671z"/>
				</g>
			</g>
			<g>
				<g>
					<g>
						<path style="fill:#E0E0E0;" d="M397.219,213.98c0,0.042-0.371,0.077-0.829,0.077c-0.458,0-0.829-0.034-0.829-0.077
							c0-0.042,0.371-0.076,0.829-0.076C396.848,213.904,397.219,213.938,397.219,213.98z"/>
					</g>
				</g>
			</g>
			<g>
				<g>
					<g>
						<path style="fill:#E0E0E0;" d="M406.02,213.98c0,0.042-0.371,0.077-0.829,0.077c-0.458,0-0.829-0.034-0.829-0.077
							c0-0.042,0.371-0.076,0.829-0.076C405.648,213.904,406.02,213.938,406.02,213.98z"/>
					</g>
				</g>
			</g>
			<g>
				<g>
					<g>
						<path style="fill:#E0E0E0;" d="M414.82,213.98c0,0.042-0.371,0.077-0.829,0.077c-0.458,0-0.829-0.034-0.829-0.077
							c0-0.042,0.371-0.076,0.829-0.076C414.449,213.904,414.82,213.938,414.82,213.98z"/>
					</g>
				</g>
			</g>
			<g>
				<g>
					<g>
						<path style="fill:#E0E0E0;" d="M423.621,213.98c0,0.042-0.371,0.077-0.829,0.077c-0.458,0-0.829-0.034-0.829-0.077
							c0-0.042,0.371-0.076,0.829-0.076C423.25,213.904,423.621,213.938,423.621,213.98z"/>
					</g>
				</g>
			</g>
			<g>
				<g>
					<g>
						<path style="fill:#E0E0E0;" d="M432.422,213.98c0,0.042-0.371,0.077-0.829,0.077c-0.458,0-0.829-0.034-0.829-0.077
							c0-0.042,0.371-0.076,0.829-0.076C432.051,213.904,432.422,213.938,432.422,213.98z"/>
					</g>
				</g>
			</g>
			<g>
				<g>
					<g>
						<path style="fill:#E0E0E0;" d="M440.292,213.98c0,0.042-0.371,0.077-0.829,0.077c-0.458,0-0.829-0.034-0.829-0.077
							c0-0.042,0.371-0.076,0.829-0.076C439.921,213.904,440.292,213.938,440.292,213.98z"/>
					</g>
				</g>
			</g>
			<g>
				<g>
					<g>
						<path style="fill:#E0E0E0;" d="M448.162,213.98c0,0.042-0.371,0.077-0.829,0.077c-0.458,0-0.829-0.034-0.829-0.077
							c0-0.042,0.371-0.076,0.829-0.076C447.79,213.904,448.162,213.938,448.162,213.98z"/>
					</g>
				</g>
			</g>
			<g>
				<g>
					<g>
						<g>
							<path style="fill:#E0E0E0;" d="M391.096,211.458c0,0.042-0.3,0.077-0.669,0.077c-0.37,0-0.67-0.034-0.67-0.077
								c0-0.042,0.3-0.076,0.67-0.076C390.797,211.381,391.096,211.416,391.096,211.458z"/>
						</g>
					</g>
				</g>
				<g>
					<g>
						<g>
							<path style="fill:#E0E0E0;" d="M391.096,208.078c0,0.042-0.3,0.077-0.669,0.077c-0.37,0-0.67-0.034-0.67-0.077
								c0-0.042,0.3-0.077,0.67-0.077C390.797,208.001,391.096,208.036,391.096,208.078z"/>
						</g>
					</g>
				</g>
				<g>
					<g>
						<g>
							<path style="fill:#E0E0E0;" d="M391.096,204.698c0,0.042-0.3,0.077-0.669,0.077c-0.37,0-0.67-0.034-0.67-0.077
								c0-0.042,0.3-0.076,0.67-0.076C390.797,204.621,391.096,204.656,391.096,204.698z"/>
						</g>
					</g>
				</g>
				<g>
					<g>
						<g>
							<path style="fill:#E0E0E0;" d="M391.096,201.318c0,0.042-0.3,0.076-0.669,0.076c-0.37,0-0.67-0.034-0.67-0.076
								c0-0.042,0.3-0.077,0.67-0.077C390.797,201.241,391.096,201.276,391.096,201.318z"/>
						</g>
					</g>
				</g>
				<g>
					<g>
						<g>
							<path style="fill:#E0E0E0;" d="M391.096,197.938c0,0.042-0.3,0.077-0.669,0.077c-0.37,0-0.67-0.034-0.67-0.077
								c0-0.042,0.3-0.077,0.67-0.077C390.797,197.861,391.096,197.896,391.096,197.938z"/>
						</g>
					</g>
				</g>
				<g>
					<g>
						<g>
							<path style="fill:#E0E0E0;" d="M391.096,194.558c0,0.042-0.3,0.077-0.669,0.077c-0.37,0-0.67-0.034-0.67-0.077
								c0-0.042,0.3-0.077,0.67-0.077C390.797,194.481,391.096,194.516,391.096,194.558z"/>
						</g>
					</g>
				</g>
				<g>
					<g>
						<g>
							<path style="fill:#E0E0E0;" d="M391.096,191.178c0,0.042-0.3,0.077-0.669,0.077c-0.37,0-0.67-0.034-0.67-0.077
								s0.3-0.076,0.67-0.076C390.797,191.101,391.096,191.135,391.096,191.178z"/>
						</g>
					</g>
				</g>
			</g>
			<g>
				<g>
					<polygon style="fill:#FF725E;" points="392.283,211.711 392.187,211.439 400.749,208.43 409.403,202.588 418.014,205.445 
						426.69,199.722 435.378,199.697 435.416,199.724 443.671,205.555 451.668,200.27 451.827,200.511 443.665,205.905 
						443.584,205.848 435.287,199.986 426.777,200.011 418.056,205.763 409.447,202.907 400.862,208.696 					"/>
				</g>
			</g>
			<g>
				<g>
					<polygon style="fill:#455A64;" points="443.716,208.621 435.288,202.892 426.602,202.892 417.911,197.156 409.484,197.081 
						400.874,205.798 392.34,205.798 392.34,205.509 400.754,205.509 409.365,196.79 417.999,196.868 426.689,202.603 
						435.377,202.603 443.619,208.206 451.852,193.74 452.103,193.883 					"/>
				</g>
			</g>
		</g>
	</g>
</g>
<g id="Plant">
	<g>
		<g>
			<g>
				<g>
					<g>
						<g>
							<g>
								<g>
									<path style="fill:#263238;" d="M420.711,424.009c13.332-5.659,28.769-16.792,35.654-30.443
										C441.983,399.344,429.302,410.173,420.711,424.009"/>
								</g>
							</g>
						</g>
					</g>
				</g>
				<g>
					<g>
						<g>
							<g>
								<g>
									<path style="fill:#263238;" d="M423.546,402.826c13.332-5.659,28.769-16.792,35.654-30.443
										C444.819,378.16,432.137,388.989,423.546,402.826"/>
								</g>
							</g>
						</g>
					</g>
				</g>
				<g>
					<g>
						<g>
							<g>
								<g>
									<path style="fill:#263238;" d="M427.404,382.22c13.332-5.659,28.769-16.792,35.654-30.443
										C448.676,357.556,435.995,368.384,427.404,382.22"/>
								</g>
							</g>
						</g>
					</g>
				</g>
				<g>
					<g>
						<g>
							<g>
								<g>
									<path style="fill:#263238;" d="M432.24,360.65c12.578-7.464,26.598-20.638,31.822-35.11
										C450.456,333.267,439.137,345.756,432.24,360.65"/>
								</g>
							</g>
						</g>
					</g>
				</g>
				<g>
					<g>
						<g>
							<g>
								<g>
									<path style="fill:#263238;" d="M437.407,344.144c9.166-11.989,17.709-29.826,17.597-45.285
										C444.97,311.509,438.711,327.616,437.407,344.144"/>
								</g>
							</g>
						</g>
					</g>
				</g>
				<g>
					<g>
						<g>
							<g>
								<g>
									<path style="fill:#263238;" d="M434.845,351.991c-1.851-16.209-8.157-36.591-18.861-48.746
										C417.684,320.613,424.393,337.952,434.845,351.991"/>
								</g>
							</g>
						</g>
					</g>
				</g>
				<g>
					<g>
						<g>
							<g>
								<g>
									<path style="fill:#263238;" d="M430.535,369.722c-3.263-16.713-11.511-37.383-23.666-49.106
										C410.071,338.55,418.488,356.016,430.535,369.722"/>
								</g>
							</g>
						</g>
					</g>
				</g>
				<g>
					<g>
						<g>
							<g>
								<g>
									<path style="fill:#263238;" d="M425.584,391.344c-3.263-16.713-11.511-37.383-23.666-49.106
										C405.12,360.172,413.537,377.639,425.584,391.344"/>
								</g>
							</g>
						</g>
					</g>
				</g>
				<g>
					<g>
						<g>
							<g>
								<g>
									<path style="fill:#263238;" d="M421.612,417.891c-3.263-16.713-11.511-37.383-23.666-49.106
										C401.147,386.719,409.565,404.185,421.612,417.891"/>
								</g>
							</g>
						</g>
					</g>
				</g>
				<g>
					<g>
						<g>
							<g>
								<g>
									<g>
										<path style="fill:#263238;" d="M438.028,340.967c-0.009-0.003-0.043,0.082-0.103,0.25
											c-0.067,0.197-0.15,0.443-0.253,0.748c-0.224,0.699-0.532,1.666-0.924,2.891c-0.801,2.512-1.886,6.169-3.154,10.71
											c-1.278,4.538-2.682,9.974-4.131,16.036c-1.423,6.069-2.873,12.768-4.21,19.837c-1.321,7.074-2.4,13.845-3.278,20.017
											c-0.853,6.176-1.516,11.751-1.976,16.443c-0.467,4.691-0.786,8.492-0.953,11.123c-0.081,1.284-0.144,2.297-0.19,3.029
											c-0.015,0.322-0.027,0.581-0.036,0.789c-0.005,0.178-0.004,0.269,0.005,0.27c0.009,0.001,0.025-0.09,0.048-0.266
											c0.023-0.207,0.052-0.465,0.088-0.785c0.069-0.73,0.166-1.74,0.288-3.021c0.228-2.624,0.603-6.419,1.117-11.101
											c0.506-4.683,1.206-10.248,2.084-16.414c0.903-6.162,1.996-12.922,3.315-19.988c1.336-7.06,2.77-13.755,4.166-19.824
											c1.422-6.062,2.788-11.502,4.019-16.049c1.222-4.549,2.252-8.22,2.993-10.748c0.352-1.237,0.629-2.213,0.83-2.919
											c0.083-0.311,0.15-0.562,0.203-0.763C438.019,341.06,438.037,340.97,438.028,340.967z"/>
									</g>
								</g>
							</g>
						</g>
					</g>
				</g>
			</g>
			<g style="opacity:0.5;">
				<g>
					<g>
						<g>
							<g>
								<g>
									<path d="M437.407,344.144"/>
								</g>
							</g>
						</g>
					</g>
				</g>
			</g>
			<g>
				<g>
					<g>
						<g>
							<g>
								<g>
									<path style="fill:#455A64;" d="M414.215,432.837c5.653-11.841,9.766-28.487,6.99-41.482
										C414.934,403.917,412.448,418.672,414.215,432.837"/>
								</g>
							</g>
						</g>
					</g>
				</g>
				<g>
					<g>
						<g>
							<g>
								<g>
									<path style="fill:#455A64;" d="M404.81,417.505c5.653-11.841,9.766-28.487,6.99-41.483
										C405.529,388.586,403.043,403.34,404.81,417.505"/>
								</g>
							</g>
						</g>
					</g>
				</g>
				<g>
					<g>
						<g>
							<g>
								<g>
									<path style="fill:#455A64;" d="M396.376,401.915c5.653-11.841,9.766-28.487,6.99-41.483
										C397.095,372.996,394.609,387.751,396.376,401.915"/>
								</g>
							</g>
						</g>
					</g>
				</g>
				<g>
					<g>
						<g>
							<g>
								<g>
									<path style="fill:#455A64;" d="M388.065,385.104c4.205-12.533,6.315-29.617,2.024-42.116
										C385.357,356.324,384.637,371.304,388.065,385.104"/>
								</g>
							</g>
						</g>
					</g>
				</g>
				<g>
					<g>
						<g>
							<g>
								<g>
									<path style="fill:#455A64;" d="M382.658,371.336c-0.413-13.334-4.335-30.035-12.614-39.88
										C370.244,345.749,374.731,359.934,382.658,371.336"/>
								</g>
							</g>
						</g>
					</g>
				</g>
				<g>
					<g>
						<g>
							<g>
								<g>
									<path style="fill:#455A64;" d="M385.16,377.946c-9.807-9.255-24.721-18.442-38.125-19.645
										C357.36,368.393,370.92,375.38,385.16,377.946"/>
								</g>
							</g>
						</g>
					</g>
				</g>
				<g>
					<g>
						<g>
							<g>
								<g>
									<path style="fill:#455A64;" d="M391.774,391.971c-10.991-8.708-27.32-16.884-41.436-16.916
										C361.938,384.585,376.676,390.602,391.774,391.971"/>
								</g>
							</g>
						</g>
					</g>
				</g>
				<g>
					<g>
						<g>
							<g>
								<g>
									<path style="fill:#455A64;" d="M400.038,408.887c-10.991-8.708-27.32-16.884-41.436-16.916
										C370.202,401.501,384.94,407.517,400.038,408.887"/>
								</g>
							</g>
						</g>
					</g>
				</g>
				<g>
					<g>
						<g>
							<g>
								<g>
									<path style="fill:#455A64;" d="M411.552,428.358c-10.991-8.708-27.32-16.884-41.436-16.916
										C381.715,420.971,396.453,426.988,411.552,428.358"/>
								</g>
							</g>
						</g>
					</g>
				</g>
				<g>
					<g>
						<g>
							<g>
								<g>
									<g>
										<path style="fill:#263238;" d="M381.375,368.916c-0.008,0.003,0.013,0.078,0.062,0.22
											c0.061,0.169,0.136,0.376,0.227,0.628c0.225,0.587,0.532,1.387,0.92,2.397c0.8,2.081,2.024,5.067,3.594,8.732
											c3.138,7.33,7.785,17.331,13.559,28.045c2.896,5.354,5.793,10.378,8.509,14.897c2.74,4.505,5.279,8.519,7.492,11.836
											c2.204,3.323,4.033,5.981,5.337,7.789c0.634,0.877,1.135,1.571,1.503,2.081c0.161,0.214,0.293,0.39,0.401,0.534
											c0.093,0.119,0.143,0.177,0.151,0.172c0.007-0.005-0.03-0.073-0.109-0.201c-0.097-0.152-0.216-0.336-0.361-0.562
											c-0.349-0.522-0.825-1.234-1.426-2.133c-1.254-1.842-3.038-4.528-5.202-7.872c-2.174-3.338-4.678-7.366-7.394-11.879
											c-2.691-4.527-5.572-9.551-8.464-14.897c-5.766-10.7-10.457-20.663-13.674-27.95c-1.61-3.644-2.882-6.607-3.737-8.664
											c-0.424-0.995-0.76-1.783-1.006-2.361c-0.11-0.245-0.199-0.445-0.273-0.61
											C381.42,368.981,381.383,368.913,381.375,368.916z"/>
									</g>
								</g>
							</g>
						</g>
					</g>
				</g>
			</g>
		</g>
		<g>
			<g>
				<g>
					<g>
						<polygon style="fill:#FF725E;" points="387.286,434.266 443.461,434.266 443.461,445.093 437.689,445.093 432.827,475.971 
							398.104,475.971 393.104,445.093 387.286,445.093 						"/>
					</g>
				</g>
			</g>
		</g>
		<g>
			<g>
				<g>
					<g>
						<g>
							<path style="fill:#263238;" d="M387.286,444.867c0-0.144,12.485-0.261,27.883-0.261c15.403,0,27.886,0.117,27.886,0.261
								c0,0.144-12.483,0.261-27.886,0.261C399.772,445.128,387.286,445.011,387.286,444.867z"/>
						</g>
					</g>
				</g>
			</g>
		</g>
	</g>
</g>
<g id="Character">
	<g>
		<g>
			<g>
				<g>
					<path style="fill:#EB996E;" d="M164.715,333.215c0,0,4.411,0.204,6.788-0.362c2.378-0.566,4.529-2.038,4.529-2.038
						s4.925,0.69,5.718-0.419c0.793-1.109,0.736-2.355,0.736-2.355l3.623-0.453l3.284,0.623l1.812,2.209
						c0,0,1.359-0.002,1.415-0.822c0,0,1.812-0.82,1.642-1.387c-0.17-0.566-1.169-3.283-1.169-3.283l-1.379-2.944
						c0,0-8.945-0.566-9.284-0.34c-0.34,0.226-11.662,5.491-11.662,5.491l-4.189,0.962L164.715,333.215z"/>
				</g>
				<g>
					<path style="fill:#FFBE9D;" d="M169.365,318.603l14.173-3.178l9.903-0.533c0,0,8.437,3.921,8.203,7.425l1.763,0.951
						c0,0-0.143,2.62-2.252,2.044c-1.482-0.405-2.999-1.118-2.999-1.118l2.264,3.458c0,0-1.379,0.906-3.128,0.062
						c-0.706-0.34-5.693-4.111-5.693-4.111l-4.205-0.117c0,0-7.826,5.373-11.447,5.957c-3.621,0.584-9.819-0.66-9.819-0.66
						L169.365,318.603z"/>
				</g>
				<g>
					<g>
						<path style="fill:#EB996E;" d="M201.154,325.311c0.007-0.061,0.36,0.059,0.935-0.044c0.282-0.057,0.595-0.235,0.791-0.583
							c0.187-0.347,0.278-0.84,0.238-1.347l0.083,0.143c-1.708-1.126-3.81-2.512-6.12-4.036c-0.628-0.413-1.241-0.816-1.837-1.207
							c-0.574-0.369-1.215-0.793-1.677-1.042c-0.005-0.004,0.001-0.022-0.013-0.038l-0.122,0.002l-0.242,0.005
							c-0.16,0.003-0.318,0.006-0.474,0.009c-0.309,0.005-0.611,0.01-0.906,0.015c-0.571,0.006-1.113,0.012-1.626,0.018
							c-1.988,0.013-3.212-0.016-3.214-0.088c-0.001-0.072,1.217-0.174,3.18-0.279c0.506-0.025,1.041-0.051,1.605-0.079
							c0.291-0.013,0.589-0.026,0.894-0.039l0.467-0.019l0.239-0.01l0.121-0.005c0.062,0.006,0.144,0.022,0.215,0.045
							c0.705,0.337,1.2,0.692,1.829,1.077c0.599,0.39,1.216,0.791,1.848,1.202c2.366,1.567,4.489,3.038,6.05,4.152l0.081,0.057
							l0.003,0.085c0.02,0.596-0.104,1.122-0.359,1.537c-0.266,0.415-0.692,0.608-1.016,0.635c-0.329,0.039-0.578-0.018-0.736-0.066
							C201.229,325.363,201.149,325.329,201.154,325.311z"/>
					</g>
				</g>
				<g>
					<g>
						<path style="fill:#EB996E;" d="M200.268,327.421c-0.057,0.042-0.618-0.616-1.482-1.719c-0.864-1.103-2.033-2.65-3.304-4.386
							l0.047,0.049c-0.053-0.042-0.111-0.088-0.169-0.133c-0.43-0.334-0.86-0.648-1.283-0.932c-0.212-0.141-0.423-0.273-0.633-0.39
							c-0.194-0.11-0.385-0.158-0.619-0.205c-0.905-0.166-1.772-0.198-2.485-0.244c-1.436-0.074-2.329-0.104-2.331-0.178
							c-0.002-0.07,0.889-0.17,2.339-0.19c0.727,0.001,1.586-0.01,2.565,0.141c0.234,0.036,0.525,0.106,0.769,0.239
							c0.229,0.122,0.453,0.257,0.675,0.4c0.444,0.288,0.884,0.606,1.324,0.947c0.06,0.048,0.12,0.095,0.176,0.139l0.026,0.02
							l0.021,0.029c1.269,1.738,2.389,3.32,3.178,4.478C199.868,326.645,200.325,327.379,200.268,327.421z"/>
					</g>
				</g>
			</g>
			<g>
				<g>
					<g>
						<g>
							<g>
								<g>
									<g>
										<g>
											<g>
												<g>
													<g>
														<path style="fill:#FF725E;" d="M255.754,433.511l0.328,26.241c0,0,26.662,6.574,27.195,11.418l-50.736,4.369
															l-2.189-40.866L255.754,433.511z"/>
													</g>
												</g>
											</g>
										</g>
									</g>
								</g>
							</g>
						</g>
					</g>
					<g style="opacity:0.6;">
						<g>
							<g>
								<g>
									<g>
										<g>
											<g>
												<g>
													<g>
														<g>
															<path style="fill:#FFFFFF;" d="M240.25,458.31c-0.971,0.317-1.598,1.456-1.322,2.44
																c0.277,0.983,1.43,1.63,2.407,1.331c0.976-0.299,1.77-1.645,1.385-2.591c-0.385-0.946-1.781-1.632-2.657-1.107"/>
														</g>
													</g>
												</g>
											</g>
										</g>
									</g>
								</g>
							</g>
						</g>
					</g>
					<g style="opacity:0.6;">
						<g>
							<g>
								<g>
									<g>
										<g>
											<g>
												<g>
													<g>
														<path style="fill:#FFFFFF;" d="M232.541,475.539l-0.221-4.119l49.137-2.511c0,0,1.686,0.576,2.107,2.609
															L232.541,475.539z"/>
													</g>
												</g>
											</g>
										</g>
									</g>
								</g>
							</g>
						</g>
					</g>
					<g>
						<g>
							<g>
								<g>
									<g>
										<g>
											<g>
												<g>
													<g>
														<g>
															<path style="fill:#263238;" d="M256.894,459.453c0.004,0.249-1.232,0.421-2.416,1.279
																c-1.206,0.827-1.784,1.933-2.017,1.846c-0.231-0.037,0.067-1.54,1.518-2.553
																C255.421,458.999,256.937,459.223,256.894,459.453z"/>
														</g>
													</g>
												</g>
											</g>
										</g>
									</g>
								</g>
							</g>
						</g>
					</g>
					<g>
						<g>
							<g>
								<g>
									<g>
										<g>
											<g>
												<g>
													<g>
														<g>
															<path style="fill:#263238;" d="M262.335,461.401c0.069,0.238-0.987,0.712-1.779,1.804
																c-0.825,1.068-0.983,2.214-1.23,2.215c-0.232,0.05-0.474-1.396,0.537-2.734
																C260.862,461.339,262.318,461.164,262.335,461.401z"/>
														</g>
													</g>
												</g>
											</g>
										</g>
									</g>
								</g>
							</g>
						</g>
					</g>
					<g>
						<g>
							<g>
								<g>
									<g>
										<g>
											<g>
												<g>
													<g>
														<g>
															<path style="fill:#263238;" d="M265.674,467.638c-0.223,0.064-0.629-1.16-0.057-2.551
																c0.562-1.395,1.707-1.988,1.822-1.787c0.15,0.198-0.568,0.964-1.02,2.113
																C265.94,466.551,265.919,467.602,265.674,467.638z"/>
														</g>
													</g>
												</g>
											</g>
										</g>
									</g>
								</g>
							</g>
						</g>
					</g>
					<g>
						<g>
							<g>
								<g>
									<g>
										<g>
											<g>
												<g>
													<g>
														<g>
															<path style="fill:#263238;" d="M256.155,453.481c-0.093,0.231-1.249-0.056-2.648,0.107
																c-1.402,0.135-2.472,0.659-2.612,0.452c-0.152-0.172,0.87-1.143,2.52-1.313
																C255.065,452.546,256.268,453.28,256.155,453.481z"/>
														</g>
													</g>
												</g>
											</g>
										</g>
									</g>
								</g>
							</g>
						</g>
					</g>
				</g>
				<g style="opacity:0.3;">
					<g>
						<g>
							<g>
								<g>
									<g>
										<g>
											<g>
												<g>
													<polygon points="255.812,438.708 255.877,443.384 230.965,446.047 230.635,440.163 													"/>
												</g>
											</g>
										</g>
									</g>
								</g>
							</g>
						</g>
					</g>
				</g>
				<g>
					<g>
						<g>
							<g>
								<g>
									<g>
										<g>
											<g>
												<g>
													<g>
														<path style="fill:#263238;" d="M255.992,448.188c0.008,0.103-0.966,0.303-2.548,0.11
															c-0.787-0.097-1.719-0.308-2.704-0.69c-0.492-0.191-0.997-0.424-1.5-0.705c-0.242-0.139-0.527-0.277-0.798-0.562
															c-0.288-0.246-0.476-0.897-0.178-1.316c0.242-0.403,0.694-0.594,1.061-0.62c0.374-0.03,0.682,0.031,0.962,0.086
															c0.573,0.11,1.113,0.272,1.61,0.467c0.993,0.395,1.81,0.916,2.423,1.428c1.233,1.036,1.681,1.943,1.598,1.996
															c-0.108,0.087-0.72-0.662-1.965-1.506c-0.621-0.42-1.408-0.846-2.334-1.17c-0.464-0.159-0.961-0.291-1.484-0.38
															c-0.546-0.115-1.004-0.097-1.131,0.15c-0.046,0.094-0.05,0.13,0.07,0.282c0.124,0.14,0.348,0.272,0.587,0.41
															c0.464,0.271,0.929,0.505,1.383,0.704c0.908,0.397,1.771,0.657,2.508,0.825
															C255.027,448.032,255.989,448.053,255.992,448.188z"/>
													</g>
												</g>
											</g>
										</g>
									</g>
								</g>
							</g>
						</g>
					</g>
				</g>
				<g>
					<g>
						<g>
							<g>
								<g>
									<g>
										<g>
											<g>
												<g>
													<g>
														<path style="fill:#263238;" d="M255.686,448.56c-0.086,0.043-0.622-0.824-0.791-2.428
															c-0.081-0.795-0.045-1.766,0.212-2.805c0.131-0.518,0.319-1.052,0.574-1.578c0.274-0.517,0.604-1.207,1.562-1.365
															c0.502-0.043,0.94,0.329,1.098,0.658c0.185,0.336,0.233,0.63,0.307,0.921c0.122,0.59,0.139,1.173,0.085,1.716
															c-0.108,1.09-0.507,2.012-0.96,2.684c-0.93,1.366-1.952,1.713-1.977,1.63c-0.089-0.121,0.754-0.642,1.453-1.945
															c0.345-0.642,0.638-1.482,0.69-2.432c0.027-0.473-0.004-0.973-0.118-1.469c-0.105-0.537-0.329-0.963-0.529-0.898
															c-0.253,0.008-0.663,0.436-0.85,0.878c-0.239,0.469-0.424,0.945-0.564,1.411c-0.274,0.934-0.371,1.821-0.37,2.566
															C255.508,447.599,255.819,448.516,255.686,448.56z"/>
													</g>
												</g>
											</g>
										</g>
									</g>
								</g>
							</g>
						</g>
					</g>
				</g>
			</g>
			<g>
				<g>
					<path style="fill:#263238;" d="M128.678,343.478c0,0,82.602-13.708,86.283-14.275c14.156-2.182,30.319-0.457,35.707,9.706
						c0,0,3.997,9.399,4.767,23.466c0.683,12.482,5.642,86.477,5.642,86.477l-34.096,5.673l-11.222-81.875l0,0l-19.243,3.606
						c1.081-0.127-49.942,9.049-65.416,10.615c-11.911,1.206-25.635-5.215-28.383-15.83c-1.796-6.938-5.704-26.259-5.704-26.259
						L128.678,343.478z"/>
				</g>
				<g>
					<g>
						<path style="fill:#455A64;" d="M223.846,361.342c0.107,0.128-2.389,1.993-4.563,5.087c-2.205,3.073-3.142,6.045-3.299,5.985
							c-0.06-0.018,0.094-0.784,0.541-1.962c0.445-1.176,1.218-2.752,2.333-4.325c1.118-1.57,2.35-2.82,3.314-3.627
							C223.137,361.689,223.809,361.291,223.846,361.342z"/>
					</g>
				</g>
			</g>
			<g>
				<g>
					<g>
						<g>
							<g>
								<g>
									<path style="fill:#263238;" d="M58.348,203.369c0,0-1.711,2.345-1.681,6.583c0.016,2.266,1.559,6.869,5.585,7.098
										c-1.069,6.488,3.084,11.284,9.999,11.294c6.914,0.01,14.83-11.852,21.235-14.457l18.598-4.912
										c1.633-0.381,2.306-2.37,2.276-4.047c-0.03-1.677-0.462-3.42,0.13-4.989c0.812-2.151,3.305-3.301,4.155-5.437
										c0.967-2.429-0.531-5.127-2.258-7.089c-1.727-1.963-3.832-3.83-4.381-6.387c-0.504-2.35,0.399-4.999-0.774-7.096
										c-1.444-2.581-5.229-2.904-6.985-5.283c-0.851-1.152-1.116-2.654-1.956-3.813c-1.432-1.976-4.191-2.493-6.617-2.228
										c-2.426,0.266-4.76,1.144-7.194,1.32c-3.339,0.242-6.789-0.838-9.993,0.13c-3.536,1.068-5.692,4.205-7.985,7.243
										l-2.992,3.524c-0.619,0.603-1.274,1.159-1.995,1.628c-1.26,0.82-2.704,1.388-3.786,2.432
										c-2.316,2.233-2.109,6.517,0.412,8.516c-2.569,0.828-4.407,3.518-4.243,6.212c0,0-0.332,3.081,1.624,4.452
										C59.522,198.061,56.721,200.172,58.348,203.369z"/>
								</g>
							</g>
						</g>
					</g>
				</g>
				<g>
					<g>
						<g>
							<g>
								<g>
									<g>
										<g>
											<g>
												<g>
													<g>
														<g>
															<g>
																<g>
																	<path style="fill:#263238;" d="M70.808,209.665c-1.533-4.717-3.048-9.47-3.746-14.381
																		c-0.699-4.911-0.55-10.03,1.179-14.68c0.262-0.705,2.496-5.434,3.244-5.36c0.535,0.053-0.841,4.464-0.571,4.928
																		c2.581,4.432,3.283,9.763,2.87,14.876C73.372,200.161,72.308,204.76,70.808,209.665"/>
																</g>
															</g>
														</g>
													</g>
												</g>
											</g>
										</g>
									</g>
								</g>
								<g>
									<g>
										<g>
											<g>
												<g>
													<g>
														<g>
															<g>
																<g>
																	<g>
																		<path style="fill:#FFBE9D;" d="M83.06,252.935c-10.979-1.383-12.24-19.015-12.24-19.015l-0.5-43.18
																			c-0.404-12.434,6.496-23.033,18.937-23.092l1.15,0.061c11.573,0.621,20.733,10.021,21.045,21.606
																			c0.29,10.779,0.472,22.692,0.093,28.447c-0.786,11.912-12.808,13.126-12.808,13.126
																			c-0.027,0-0.319,10.691-0.28,14.368C98.592,257.939,86.14,253.204,83.06,252.935L83.06,252.935z"/>
																	</g>
																</g>
															</g>
														</g>
													</g>
												</g>
											</g>
										</g>
									</g>
								</g>
								<g>
									<g>
										<g>
											<g>
												<g>
													<g>
														<g>
															<g>
																<g>
																	<g>
																		<g>
																			<path style="fill:#EB996E;" d="M98.735,230.888c0,0-7.537,0.038-15.274-5.421c0,0,3.213,9.379,15.165,8.944
																				L98.735,230.888z"/>
																		</g>
																	</g>
																</g>
															</g>
														</g>
													</g>
												</g>
											</g>
										</g>
									</g>
								</g>
								<g>
									<g>
										<g>
											<g>
												<g>
													<g>
														<g>
															<g>
																<g>
																	<g>
																		<g>
																			<g>
																				<g>
																					<g>
																						<g>
																							<g>
																								<g>
																									<path style="fill:#263238;" d="M108.312,199.09c-0.016,0.901-0.793,1.63-1.734,1.63
																										c-0.939,0-1.689-0.728-1.672-1.629c0.016-0.901,0.792-1.63,1.731-1.631
																										C107.579,197.46,108.328,198.189,108.312,199.09z"/>
																								</g>
																							</g>
																						</g>
																					</g>
																				</g>
																			</g>
																		</g>
																	</g>
																</g>
															</g>
														</g>
													</g>
												</g>
											</g>
										</g>
									</g>
								</g>
								<g>
									<g>
										<g>
											<g>
												<g>
													<g>
														<g>
															<g>
																<g>
																	<g>
																		<g>
																			<g>
																				<g>
																					<g>
																						<g>
																							<g>
																								<g>
																									<g>
																										<path style="fill:#263238;" d="M108.638,194.126c-0.223,0.211-1.461-0.813-3.294-0.906
																											c-1.829-0.12-3.224,0.751-3.41,0.516c-0.092-0.104,0.144-0.494,0.752-0.889
																											c0.599-0.393,1.604-0.753,2.745-0.687c1.141,0.068,2.078,0.539,2.606,0.998
																											C108.578,193.62,108.747,194.032,108.638,194.126z"/>
																									</g>
																								</g>
																							</g>
																						</g>
																					</g>
																				</g>
																			</g>
																		</g>
																	</g>
																</g>
															</g>
														</g>
													</g>
												</g>
											</g>
										</g>
									</g>
								</g>
								<g>
									<g>
										<g>
											<g>
												<g>
													<g>
														<g>
															<g>
																<g>
																	<g>
																		<g>
																			<g>
																				<g>
																					<g>
																						<g>
																							<g>
																								<g>
																									<path style="fill:#263238;" d="M91.092,199.09c-0.016,0.901-0.793,1.629-1.734,1.629
																										c-0.939,0-1.689-0.728-1.672-1.629c0.017-0.9,0.793-1.63,1.732-1.63
																										C90.359,197.46,91.108,198.19,91.092,199.09z"/>
																								</g>
																							</g>
																						</g>
																					</g>
																				</g>
																			</g>
																		</g>
																	</g>
																</g>
															</g>
														</g>
													</g>
												</g>
											</g>
										</g>
									</g>
								</g>
								<g>
									<g>
										<g>
											<g>
												<g>
													<g>
														<g>
															<g>
																<g>
																	<g>
																		<g>
																			<g>
																				<g>
																					<g>
																						<g>
																							<g>
																								<g>
																									<g>
																										<path style="fill:#263238;" d="M90.655,193.905c-0.223,0.211-1.464-0.813-3.294-0.906
																											c-1.828-0.12-3.223,0.751-3.41,0.516c-0.092-0.105,0.142-0.494,0.753-0.888
																											c0.599-0.394,1.604-0.754,2.744-0.688c1.141,0.068,2.078,0.539,2.607,0.999
																											C90.594,193.399,90.764,193.811,90.655,193.905z"/>
																									</g>
																								</g>
																							</g>
																						</g>
																					</g>
																				</g>
																			</g>
																		</g>
																	</g>
																</g>
															</g>
														</g>
													</g>
												</g>
											</g>
										</g>
									</g>
								</g>
								<g>
									<g>
										<g>
											<g>
												<g>
													<g>
														<g>
															<g>
																<g>
																	<g>
																		<g>
																			<g>
																				<g>
																					<g>
																						<g>
																							<g>
																								<g>
																									<path style="fill:#263238;" d="M96.472,208.333c-0.003-0.105,1.146-0.24,3.004-0.378
																										c0.47-0.023,0.918-0.092,1.014-0.407c0.128-0.332-0.04-0.847-0.238-1.403
																										c-0.379-1.155-0.776-2.366-1.192-3.636c-1.649-5.174-2.816-9.418-2.607-9.483
																										c0.209-0.064,1.715,4.077,3.365,9.251c0.395,1.275,0.773,2.491,1.133,3.654
																										c0.148,0.541,0.421,1.16,0.144,1.849c-0.145,0.343-0.502,0.578-0.806,0.643
																										c-0.305,0.076-0.568,0.066-0.8,0.068C97.625,208.49,96.473,208.437,96.472,208.333z"/>
																								</g>
																							</g>
																						</g>
																					</g>
																				</g>
																			</g>
																		</g>
																	</g>
																</g>
															</g>
														</g>
													</g>
												</g>
											</g>
										</g>
									</g>
								</g>
								<g>
									<g>
										<g>
											<g>
												<g>
													<g>
														<g>
															<g>
																<g>
																	<g>
																		<g>
																			<g>
																				<g>
																					<g>
																						<g>
																							<g>
																								<g>
																									<path style="fill:#263238;" d="M91.013,209.31c0.299-0.001,0.196,1.987,1.822,3.49
																										c1.623,1.507,3.754,1.397,3.755,1.676c0.021,0.126-0.493,0.361-1.389,0.337
																										c-0.879-0.017-2.145-0.368-3.141-1.287c-0.992-0.921-1.376-2.1-1.4-2.919
																										C90.629,209.772,90.877,209.292,91.013,209.31z"/>
																								</g>
																							</g>
																						</g>
																					</g>
																				</g>
																			</g>
																		</g>
																	</g>
																</g>
															</g>
														</g>
													</g>
												</g>
											</g>
										</g>
									</g>
								</g>
								<g>
									<g>
										<g>
											<g>
												<g>
													<g>
														<g>
															<g>
																<g>
																	<g>
																		<g>
																			<g>
																				<g>
																					<path style="fill:#263238;" d="M90.953,186.466c-0.207,0.489-2.023,0.154-4.187,0.298
																						c-2.166,0.1-3.933,0.637-4.194,0.175c-0.116-0.221,0.212-0.673,0.938-1.118
																						c0.72-0.444,1.853-0.842,3.151-0.917c1.298-0.072,2.468,0.196,3.234,0.557
																						C90.667,185.821,91.043,186.234,90.953,186.466z"/>
																				</g>
																			</g>
																		</g>
																	</g>
																</g>
															</g>
														</g>
													</g>
												</g>
											</g>
										</g>
									</g>
								</g>
								<g>
									<g>
										<g>
											<g>
												<g>
													<g>
														<g>
															<g>
																<g>
																	<g>
																		<g>
																			<g>
																				<g>
																					<path style="fill:#263238;" d="M108.207,187.996c-0.344,0.399-1.583-0.101-3.1-0.203
																						c-1.512-0.155-2.817,0.13-3.09-0.322c-0.118-0.218,0.106-0.624,0.689-0.988
																						c0.574-0.363,1.517-0.634,2.558-0.546c1.041,0.089,1.924,0.514,2.429,0.969
																						C108.207,187.363,108.36,187.801,108.207,187.996z"/>
																				</g>
																			</g>
																		</g>
																	</g>
																</g>
															</g>
														</g>
													</g>
												</g>
											</g>
										</g>
									</g>
								</g>
								<g>
									<g>
										<g>
											<g>
												<g>
													<g>
														<g>
															<g>
																<g>
																	<path style="fill:#FFBE9D;" d="M70.82,199.618c-0.199-0.099-8.06-2.862-8.237,5.301
																		c-0.176,8.163,8.056,6.657,8.075,6.423C70.676,211.109,70.82,199.618,70.82,199.618z"/>
																</g>
															</g>
														</g>
													</g>
												</g>
											</g>
										</g>
									</g>
								</g>
								<g>
									<g>
										<g>
											<g>
												<g>
													<g>
														<g>
															<g>
																<g>
																	<g>
																		<path style="fill:#EB996E;" d="M68.23,208.196c-0.035-0.027-0.144,0.096-0.387,0.201
																			c-0.237,0.102-0.641,0.168-1.063-0.001c-0.855-0.335-1.552-1.72-1.56-3.192c-0.005-0.743,0.167-1.447,0.442-2.027
																			c0.262-0.592,0.657-1.001,1.093-1.069c0.434-0.09,0.736,0.176,0.831,0.408c0.104,0.23,0.049,0.392,0.092,0.407
																			c0.022,0.021,0.178-0.133,0.12-0.471c-0.031-0.163-0.122-0.358-0.31-0.519c-0.192-0.163-0.479-0.251-0.782-0.225
																			c-0.63,0.03-1.21,0.597-1.513,1.233c-0.338,0.639-0.548,1.43-0.542,2.265c0.017,1.646,0.825,3.204,1.998,3.57
																			c0.571,0.162,1.054-0.001,1.305-0.188C68.212,208.393,68.258,208.211,68.23,208.196z"/>
																	</g>
																</g>
															</g>
														</g>
													</g>
												</g>
											</g>
										</g>
									</g>
								</g>
								<g>
									<g>
										<g>
											<g>
												<g>
													<g>
														<g>
															<g>
																<g>
																	<path style="fill:#263238;" d="M106.342,175.722c1.331-0.712-2.58-5.042-5.808-6.557
																		c-4.879-2.29-12.356-3.757-16.897-2.532c-5.468,1.475-10.029,4.127-12.827,9.051
																		c-2.799,4.923-3.901,10.688-3.815,16.35c0.026,1.728,0.182,3.53,1.086,5.003c1.117,1.82,3.291,2.985,3.163,5.473
																		c-0.047,0.91,0.201,1.831,0.816,2.503c1.473,1.608,3.32,0.139,4.179-1.348c1.836-3.175,2.084-6.99,2.289-10.652
																		c0.146-2.603,0.285-5.261-0.417-7.771c-0.382-1.366-1.007-2.66-1.313-4.045c-0.306-1.385-0.244-2.952,0.631-4.069
																		c0.142-0.182,0.376-0.41,0.672-0.662c2.338-1.997,5.583-2.562,8.468-1.5c4.577,1.686,12.397,4.215,14.468,2.681
																		c2.979-2.207,3.703-3.662,3.703-3.662L106.342,175.722z"/>
																</g>
															</g>
														</g>
													</g>
												</g>
											</g>
										</g>
									</g>
								</g>
							</g>
						</g>
						<g>
							<g>
								<g>
									<g>
										<g>
											<g>
												<g>
													<g>
														<g>
															<path style="fill:#263238;" d="M84.078,165.531c4.505-1.443,9.612-1.299,13.783,0.933
																c2.214,1.185,4.204,3.059,4.853,5.485c0.649,2.426-0.421,5.388-2.759,6.305l-0.161,0.099
																c-3.498,1.128-5.756,0.632-9.214-0.615c-2.909-1.049-5.485-2.886-8.399-3.921c-3.098-1.1-6.529-1.244-9.708-0.407
																C75.64,169.897,79.572,166.974,84.078,165.531z"/>
														</g>
													</g>
												</g>
											</g>
										</g>
									</g>
								</g>
							</g>
						</g>
					</g>
				</g>
				<g>
					<g>
						<g>
							<g>
								<g>
									<g>
										<g>
											<path style="fill:#455A64;" d="M68.552,173.602c0.07,0.063,0.727-0.719,2.054-1.639c0.663-0.453,1.49-0.95,2.477-1.325
												c0.98-0.375,2.13-0.654,3.32-0.556c2.425,0.231,4.446,1.358,5.692,2.347c1.263,1.002,1.849,1.843,1.926,1.783
												c0.028-0.019-0.087-0.25-0.355-0.628c-0.264-0.38-0.703-0.894-1.323-1.451c-1.229-1.101-3.307-2.347-5.895-2.595
												c-1.309-0.106-2.531,0.214-3.551,0.633c-1.027,0.421-1.864,0.973-2.519,1.481
												C69.066,172.686,68.505,173.571,68.552,173.602z"/>
										</g>
									</g>
								</g>
							</g>
						</g>
					</g>
				</g>
				<g>
					<g>
						<g>
							<g>
								<g>
									<g>
										<g>
											<path style="fill:#455A64;" d="M93.428,164.786c-0.019,0.09,0.847,0.291,2.163,0.815
												c1.315,0.519,3.062,1.428,4.728,2.794c1.661,1.374,2.887,2.916,3.648,4.107c0.766,1.191,1.129,2.002,1.213,1.967
												c0.055-0.02-0.183-0.891-0.883-2.165c-0.694-1.271-1.915-2.91-3.632-4.33c-1.722-1.413-3.563-2.298-4.943-2.736
												C94.338,164.795,93.437,164.728,93.428,164.786z"/>
										</g>
									</g>
								</g>
							</g>
						</g>
					</g>
				</g>
			</g>
			<g>
				<g>
					<path style="fill:#F5F5F5;" d="M69.259,223.973l-1.444,6.202l33.474,20.801l-1.495-10.353c0,0-4.494-4.782-10.21-8.111
						C80.037,226.952,69.259,223.973,69.259,223.973z"/>
				</g>
				<g>
					<path style="fill:#FF725E;" d="M66.568,232.042c0,0-10.298,21.828-11.034,30.12c-0.736,8.292,2.115,35.835,2.115,35.835
						l46.458,53.006l46.371,3.08c0,0-21.953-46.164-26.86-55.166c-4.907-9.003-21.416-49.787-21.416-49.787
						s-1.296-4.233-5.823-9.031c-6.291-6.666-18.484-10.782-29.47-12.986L66.568,232.042z"/>
				</g>
				<g>
					<g>
						<g>
							<path style="fill:#FF725E;" d="M84.264,241.318c6.886,0.808,15.733,6.008,18.806,18.11l2.953,14.957l14.845,30.146
								l48.649,13.88l-6.316,19.062c0,0-48.184-3.792-54.447-5.433c-6.263-1.641-32.19-38.471-32.19-38.471
								s-12.97-22.406-9.656-38.924C68.57,246.368,75.755,240.32,84.264,241.318z"/>
						</g>
						<g>
							<g>
								<path style="fill:#263238;" d="M84.264,241.318c0,0-0.399-0.005-1.168-0.046c-0.768-0.036-1.917,0.006-3.391,0.251
									c-1.459,0.299-3.245,0.86-5.097,2c-1.859,1.116-3.729,2.868-5.228,5.239c-0.715,1.2-1.406,2.522-1.84,4.015
									c-0.138,0.363-0.215,0.749-0.312,1.134c-0.09,0.386-0.205,0.772-0.242,1.179c-0.11,0.806-0.222,1.631-0.336,2.473
									c-0.26,3.392-0.012,7.098,0.711,10.986c0.722,3.889,1.907,7.958,3.483,12.134c1.588,4.168,3.51,8.486,5.9,12.782
									l-0.01-0.016c3.766,5.296,7.851,10.87,12.252,16.637c4.431,5.736,9.084,11.777,14.511,17.48
									c1.381,1.381,2.791,2.834,4.461,3.839c0.797,0.496,1.836,0.568,2.813,0.769c1,0.143,1.997,0.313,3.011,0.429
									c4.044,0.524,8.17,0.946,12.352,1.362c8.366,0.828,16.97,1.58,25.742,2.321c3.815,0.312,7.599,0.622,11.343,0.928
									l-0.267,0.177c2.149-6.482,4.259-12.845,6.32-19.06l0.172,0.326c-17.54-5.017-33.95-9.71-48.64-13.912l-0.095-0.027
									l-0.043-0.089c-5.516-11.24-10.485-21.364-14.805-30.166l-0.01-0.022l-0.005-0.023c-0.642-3.287-1.253-6.413-1.83-9.365
									c-0.611-2.942-0.99-5.772-1.9-8.24c-1.702-5.007-4.67-8.653-7.527-10.948c-2.872-2.335-5.617-3.358-7.45-3.915
									c-0.932-0.255-1.651-0.423-2.14-0.493C84.513,241.374,84.264,241.318,84.264,241.318s0.252,0.022,0.744,0.09
									c0.494,0.054,1.219,0.206,2.16,0.447c1.851,0.529,4.628,1.528,7.545,3.86c2.901,2.29,5.925,5.96,7.67,11.006
									c0.937,2.507,1.324,5.324,1.948,8.266c0.589,2.952,1.212,6.077,1.867,9.363l-0.015-0.044
									c4.343,8.79,9.339,18.902,14.885,30.126l-0.138-0.116c14.695,4.183,31.112,8.855,48.658,13.849l0.256,0.073l-0.084,0.253
									c-2.058,6.216-4.165,12.58-6.311,19.063l-0.064,0.194l-0.203-0.017c-3.745-0.306-7.53-0.615-11.346-0.927
									c-8.774-0.741-17.379-1.495-25.749-2.328c-4.185-0.419-8.312-0.843-12.367-1.372c-1.015-0.118-2.022-0.289-3.027-0.434
									c-0.502-0.067-1.005-0.193-1.505-0.287c-0.483-0.077-1.041-0.269-1.472-0.543c-1.78-1.078-3.169-2.531-4.57-3.93
									c-5.455-5.746-10.096-11.792-14.524-17.544c-4.396-5.781-8.471-11.364-12.228-16.676l-0.006-0.009l-0.004-0.007
									c-2.4-4.337-4.311-8.664-5.894-12.858c-1.57-4.198-2.747-8.29-3.459-12.206c-0.713-3.914-0.948-7.65-0.668-11.073
									c0.12-0.85,0.237-1.683,0.352-2.497c0.04-0.41,0.158-0.802,0.252-1.194c0.1-0.39,0.181-0.781,0.323-1.149
									c0.449-1.512,1.158-2.85,1.891-4.062c1.535-2.395,3.444-4.155,5.334-5.268c1.884-1.137,3.695-1.685,5.17-1.967
									c1.489-0.227,2.646-0.248,3.416-0.192C83.871,241.27,84.264,241.318,84.264,241.318z"/>
							</g>
						</g>
					</g>
					<g>
						<g>
							<path style="fill:#263238;" d="M112.518,316.207c-0.06-0.026,0.194-0.807,0.761-2.006c0.565-1.198,1.468-2.802,2.663-4.438
								c1.198-1.635,2.454-2.981,3.424-3.883c0.97-0.904,1.637-1.384,1.679-1.334c0.11,0.12-2.332,2.291-4.683,5.524
								C113.991,313.288,112.666,316.276,112.518,316.207z"/>
						</g>
					</g>
				</g>
				<g>
					<g>
						<path style="fill:#263238;" d="M103.991,252.988c-0.028,0.022-0.447-0.421-1.177-1.241c-0.361-0.413-0.805-0.917-1.359-1.466
							c-0.55-0.552-1.139-1.215-1.871-1.869c-1.406-1.365-3.189-2.874-5.259-4.426c-2.093-1.522-4.488-3.066-7.119-4.483
							c-5.279-2.818-10.426-4.597-14.179-5.726c-1.881-0.558-3.413-0.982-4.479-1.251c-1.063-0.279-1.648-0.449-1.64-0.484
							s0.607,0.069,1.687,0.287c1.081,0.209,2.632,0.579,4.534,1.094c3.794,1.043,8.997,2.779,14.323,5.621
							c2.653,1.43,5.064,3,7.16,4.558c2.073,1.588,3.846,3.139,5.23,4.547c0.72,0.676,1.295,1.361,1.827,1.935
							c0.536,0.571,0.96,1.097,1.299,1.532C103.654,252.479,104.019,252.966,103.991,252.988z"/>
					</g>
				</g>
			</g>
			<g>
				<g>
					<g>
						<path style="fill:#E0E0E0;" d="M246.526,266.493c-0.888-0.265-1.823,0.239-2.089,1.127l-16.913,56.582l-56.682,8.838
							c-1.831,0.286-3.085,2.002-2.799,3.833l62.082-9.68l0.007,0.002l0.001-0.003l0.015-0.002l-0.005-0.031l17.51-58.578
							C247.919,267.694,247.414,266.759,246.526,266.493z"/>
					</g>
					<g>
						<g>
							<path style="fill:#263238;" d="M246.526,266.493c-0.025,0.012,0.471,0.015,0.951,0.667c0.223,0.319,0.386,0.836,0.233,1.412
								c-0.159,0.551-0.343,1.186-0.55,1.903c-0.849,2.89-2.084,7.097-3.653,12.442c-3.181,10.722-7.715,26.002-13.146,44.307
								l0.007-0.1l0.005,0.03l0.035,0.224l-0.224,0.035c0,0-0.009,0.001-0.014,0.002l0.182-0.159l-0.001,0.003l-0.065,0.216
								l-0.217-0.064l-0.007-0.002l0.099,0.007c-17.767,2.78-38.657,6.049-60.917,9.533c-0.39,0.061-0.779,0.122-1.159,0.181
								l-0.254,0.04l-0.044-0.257c-0.261-1.541,0.606-3.168,2.01-3.818c0.343-0.169,0.727-0.266,1.091-0.326l1.051-0.164
								l2.096-0.327c2.788-0.434,5.549-0.864,8.281-1.289c5.463-0.849,10.806-1.68,16.002-2.488
								c10.39-1.611,20.189-3.129,29.172-4.522l-0.18,0.157c5.339-17.726,9.785-32.488,12.902-42.838
								c1.567-5.149,2.799-9.199,3.646-11.981c0.215-0.688,0.405-1.298,0.57-1.828c0.205-0.538,0.628-0.844,0.976-0.978
								C246.141,266.26,246.539,266.514,246.526,266.493c0.006,0.042-0.397-0.181-1.096,0.085c-0.33,0.14-0.723,0.44-0.905,0.95
								c-0.155,0.53-0.334,1.141-0.536,1.831c-0.819,2.79-2.011,6.852-3.527,12.016c-3.074,10.363-7.459,25.144-12.723,42.892
								l-0.04,0.135l-0.14,0.022c-8.981,1.409-18.777,2.945-29.164,4.574c-5.195,0.812-10.537,1.648-16,2.502
								c-2.731,0.427-5.493,0.858-8.281,1.293l-2.096,0.327c-0.706,0.128-1.421,0.157-1.997,0.445
								c-1.201,0.556-1.944,1.95-1.721,3.268l-0.297-0.217c0.38-0.059,0.77-0.12,1.159-0.181
								c22.264-3.459,43.158-6.705,60.928-9.466l0.051-0.008l0.049,0.014l0.007,0.002l-0.281,0.152l0.001-0.003l0.041-0.137
								l0.141-0.022c0.005-0.001,0.014-0.002,0.014-0.002l-0.189,0.259l-0.005-0.03l-0.008-0.051l0.015-0.049
								c5.505-18.283,10.101-33.544,13.326-44.253c1.621-5.329,2.897-9.524,3.774-12.406c0.219-0.713,0.413-1.344,0.582-1.892
								c0.155-0.537,0.015-1.031-0.19-1.344C246.978,266.56,246.496,266.526,246.526,266.493z"/>
						</g>
					</g>
				</g>
				<g>
					<g>
						<path style="fill:#455A64;" d="M230.142,327.187c-0.122,0.082-0.725-0.613-1.461-1.46c-0.733-0.85-1.334-1.546-1.236-1.655
							c0.093-0.105,0.872,0.436,1.63,1.314C229.835,326.261,230.26,327.109,230.142,327.187z"/>
					</g>
				</g>
				<g>
					<g>
						<path style="fill:#455A64;" d="M220.792,326.34c-0.049-0.061,0.247-0.251,0.644-0.036c0.176,0.081,0.434,0.346,0.402,0.697
							c-0.022,0.325-0.241,0.662-0.628,0.775c-0.395,0.102-0.75-0.09-0.932-0.343c-0.199-0.26-0.18-0.607-0.069-0.799
							C220.454,326.213,220.807,326.277,220.792,326.34c0.019,0.071-0.19,0.171-0.24,0.43c-0.024,0.128-0.001,0.26,0.103,0.367
							c0.099,0.11,0.282,0.179,0.417,0.138c0.139-0.033,0.265-0.188,0.288-0.322c0.033-0.131-0.03-0.237-0.135-0.346
							C221.018,326.401,220.82,326.405,220.792,326.34z"/>
					</g>
				</g>
				<g>
					<g>
						<path style="fill:#455A64;" d="M224.414,325.785c-0.049-0.061,0.247-0.251,0.644-0.036c0.176,0.081,0.434,0.346,0.402,0.697
							c-0.022,0.325-0.241,0.662-0.628,0.775c-0.395,0.102-0.75-0.09-0.932-0.343c-0.199-0.26-0.181-0.607-0.069-0.799
							C224.076,325.658,224.429,325.723,224.414,325.785c0.019,0.071-0.19,0.171-0.24,0.43c-0.024,0.128-0.001,0.26,0.103,0.367
							c0.099,0.11,0.283,0.179,0.418,0.138c0.139-0.033,0.265-0.189,0.288-0.322c0.033-0.131-0.03-0.237-0.135-0.346
							C224.64,325.846,224.441,325.85,224.414,325.785z"/>
					</g>
				</g>
			</g>
		</g>
		<g>
			<g>
				<polygon style="fill:#263238;" points="84.571,400.298 61.56,475.886 69.946,475.971 101.038,399.513 				"/>
			</g>
			<g>
				<path style="fill:#263238;" d="M183.519,390.01c-0.055,0.003,26.043,85.762,26.043,85.762l8.321,0.113l-16.086-87.606
					L183.519,390.01z"/>
			</g>
			<g>
				<g>
					<path style="fill:#455A64;" d="M48.608,280.214c-2.51-2.358-6.279-3.028-9.492-1.658c-6.444,2.75-15.886,8.394-13.762,17.305
						c2.651,11.122,33.151,83.796,42.99,107.112c1.836,4.351,6.115,7.163,10.837,7.124l127.789-1.048
						c5.668-0.047,10.016-5.045,9.277-10.665l-4.774-36.301c-1.58-12.016-11.291-21.325-23.363-22.396l-82.66-7.335L48.608,280.214z
						"/>
				</g>
				<g>
					<g>
						<path style="fill:#263238;" d="M64.162,391.706c-0.009,0.002-0.033-0.087-0.072-0.261c-0.042-0.204-0.095-0.459-0.16-0.775
							c-0.137-0.722-0.326-1.72-0.566-2.987c-0.476-2.639-1.152-6.387-1.985-11.002c-0.821-4.661-1.796-10.191-2.878-16.328
							c-0.536-3.075-1.099-6.301-1.682-9.645c-0.29-1.673-0.586-3.375-0.885-5.103c-0.286-1.723-0.574-3.559-0.142-5.398
							c0.224-0.909,0.645-1.775,1.248-2.484c0.599-0.713,1.351-1.268,2.148-1.69c1.608-0.838,3.354-1.195,5.044-1.432
							c3.401-0.377,6.657-0.567,9.775-0.802c6.229-0.433,11.844-0.714,16.562-0.902c4.718-0.185,8.537-0.272,11.177-0.311
							c1.289-0.01,2.305-0.018,3.04-0.023c0.322,0.004,0.583,0.007,0.791,0.009c0.178,0.005,0.27,0.012,0.27,0.021
							c0,0.009-0.091,0.02-0.269,0.033c-0.208,0.011-0.468,0.025-0.79,0.043c-0.734,0.029-1.749,0.07-3.037,0.121
							c-2.678,0.114-6.482,0.277-11.166,0.476c-4.713,0.234-10.322,0.553-16.544,1.012c-3.104,0.246-6.392,0.451-9.74,0.829
							c-1.659,0.235-3.356,0.592-4.871,1.385c-1.514,0.769-2.749,2.137-3.133,3.839c-0.403,1.697-0.139,3.476,0.147,5.188
							c0.297,1.728,0.59,3.43,0.877,5.103c0.573,3.346,1.125,6.574,1.652,9.65c1.04,6.144,1.978,11.681,2.768,16.347
							c0.764,4.627,1.385,8.385,1.822,11.03c0.199,1.273,0.356,2.278,0.469,3.004c0.045,0.319,0.08,0.577,0.109,0.783
							C64.164,391.613,64.171,391.704,64.162,391.706z"/>
					</g>
				</g>
				<g>
					<g>
						<path style="fill:#263238;" d="M210.478,388.28c0,0.144-33.015,0.26-73.732,0.26c-40.731,0-73.739-0.117-73.739-0.26
							s33.008-0.26,73.739-0.26C177.463,388.02,210.478,388.136,210.478,388.28z"/>
					</g>
				</g>
				<g>
					<g>
						<path style="fill:#263238;" d="M78.854,333.512c-0.109,0.094-10.204-11.514-22.545-25.924
							c-12.345-14.414-22.261-26.172-22.151-26.265c0.109-0.094,10.202,11.512,22.547,25.926
							C69.046,321.659,78.963,333.418,78.854,333.512z"/>
					</g>
				</g>
			</g>
		</g>
	</g>
</g>
</svg>
