<svg id="visual" viewBox="0 0 960 540" width="960" height="540" xmlns="http://www.w3.org/2000/svg" xmlns:xlink="http://www.w3.org/1999/xlink" version="1.1"><rect x="0" y="0" width="960" height="540" fill="#ffffff"></rect><defs><linearGradient id="grad1_0" x1="43.8%" y1="100%" x2="100%" y2="0%"><stop offset="14.444444444444446%" stop-color="#ffffff" stop-opacity="1"></stop><stop offset="85.55555555555554%" stop-color="#ffffff" stop-opacity="1"></stop></linearGradient></defs><defs><linearGradient id="grad2_0" x1="0%" y1="100%" x2="56.3%" y2="0%"><stop offset="14.444444444444446%" stop-color="#ffffff" stop-opacity="1"></stop><stop offset="85.55555555555554%" stop-color="#ffffff" stop-opacity="1"></stop></linearGradient></defs><g transform="translate(960, 540)"><path d="M-351 0C-296.3 -21.6 -241.7 -43.2 -233 -75.7C-224.3 -108.3 -261.6 -151.8 -266.2 -193.4C-270.7 -235 -242.4 -274.6 -206.3 -284C-170.2 -293.4 -126.2 -272.5 -90.5 -278.7C-54.8 -284.8 -27.4 -317.9 0 -351L0 0Z" fill="#f6c376"></path></g><g transform="translate(0, 0)"><path d="M351 0C318 29.6 285.1 59.2 267.2 86.8C249.4 114.4 246.8 140 241.9 175.7C237 211.5 229.8 257.3 206.3 284C182.8 310.7 143.1 318.2 106 326.2C68.9 334.2 34.4 342.6 0 351L0 0Z" fill="#f6c376"></path></g></svg>